%TF.GenerationSoftware,KiCad,Pcbnew,5.1.8*%
%TF.CreationDate,2021-01-03T19:29:45+03:30*%
%TF.ProjectId,rev-1.3,7265762d-312e-4332-9e6b-696361645f70,rev?*%
%TF.SameCoordinates,Original*%
%TF.FileFunction,Copper,L2,Bot*%
%TF.FilePolarity,Positive*%
%FSLAX46Y46*%
G04 Gerber Fmt 4.6, Leading zero omitted, Abs format (unit mm)*
G04 Created by KiCad (PCBNEW 5.1.8) date 2021-01-03 19:29:45*
%MOMM*%
%LPD*%
G01*
G04 APERTURE LIST*
%TA.AperFunction,ComponentPad*%
%ADD10O,1.600000X1.600000*%
%TD*%
%TA.AperFunction,ComponentPad*%
%ADD11R,1.600000X1.600000*%
%TD*%
%TA.AperFunction,ComponentPad*%
%ADD12C,2.340000*%
%TD*%
%TA.AperFunction,ComponentPad*%
%ADD13C,1.600000*%
%TD*%
%TA.AperFunction,ComponentPad*%
%ADD14O,2.000000X1.905000*%
%TD*%
%TA.AperFunction,ComponentPad*%
%ADD15R,2.000000X1.905000*%
%TD*%
%TA.AperFunction,ComponentPad*%
%ADD16O,2.000000X2.000000*%
%TD*%
%TA.AperFunction,ComponentPad*%
%ADD17C,2.000000*%
%TD*%
%TA.AperFunction,ComponentPad*%
%ADD18O,3.960000X1.980000*%
%TD*%
%TA.AperFunction,ComponentPad*%
%ADD19R,3.960000X1.980000*%
%TD*%
G04 APERTURE END LIST*
D10*
%TO.P,U1,14*%
%TO.N,N/C*%
X135890000Y-40640000D03*
%TO.P,U1,7*%
%TO.N,Net-(R6-Pad2)*%
X128270000Y-55880000D03*
%TO.P,U1,13*%
%TO.N,N/C*%
X135890000Y-43180000D03*
%TO.P,U1,6*%
%TO.N,Net-(R7-Pad2)*%
X128270000Y-53340000D03*
%TO.P,U1,12*%
%TO.N,N/C*%
X135890000Y-45720000D03*
%TO.P,U1,5*%
%TO.N,Net-(R5-Pad1)*%
X128270000Y-50800000D03*
%TO.P,U1,11*%
%TO.N,V_IN-*%
X135890000Y-48260000D03*
%TO.P,U1,4*%
%TO.N,V_IN+*%
X128270000Y-48260000D03*
%TO.P,U1,10*%
%TO.N,N/C*%
X135890000Y-50800000D03*
%TO.P,U1,3*%
%TO.N,Net-(R2-Pad1)*%
X128270000Y-45720000D03*
%TO.P,U1,9*%
%TO.N,N/C*%
X135890000Y-53340000D03*
%TO.P,U1,2*%
%TO.N,Net-(R4-Pad2)*%
X128270000Y-43180000D03*
%TO.P,U1,8*%
%TO.N,N/C*%
X135890000Y-55880000D03*
D11*
%TO.P,U1,1*%
%TO.N,Net-(R3-Pad2)*%
X128270000Y-40640000D03*
%TD*%
D12*
%TO.P,RV2,1*%
%TO.N,Net-(C2-Pad1)*%
X102870000Y-64770000D03*
%TO.P,RV2,2*%
%TO.N,Net-(R5-Pad2)*%
X102870000Y-69770000D03*
%TO.P,RV2,3*%
%TO.N,V_IN-*%
X102870000Y-74770000D03*
%TD*%
%TO.P,RV1,1*%
%TO.N,Net-(C2-Pad1)*%
X102870000Y-45720000D03*
%TO.P,RV1,2*%
%TO.N,Net-(R2-Pad2)*%
X102870000Y-50720000D03*
%TO.P,RV1,3*%
%TO.N,V_IN-*%
X102870000Y-55720000D03*
%TD*%
D10*
%TO.P,R7,2*%
%TO.N,Net-(R7-Pad2)*%
X135890000Y-66040000D03*
D13*
%TO.P,R7,1*%
%TO.N,Out-*%
X148590000Y-66040000D03*
%TD*%
D10*
%TO.P,R6,2*%
%TO.N,Net-(R6-Pad2)*%
X130810000Y-27940000D03*
D13*
%TO.P,R6,1*%
%TO.N,Net-(C6-Pad2)*%
X143510000Y-27940000D03*
%TD*%
D10*
%TO.P,R5,2*%
%TO.N,Net-(R5-Pad2)*%
X106680000Y-69850000D03*
D13*
%TO.P,R5,1*%
%TO.N,Net-(R5-Pad1)*%
X119380000Y-69850000D03*
%TD*%
D10*
%TO.P,R4,2*%
%TO.N,Net-(R4-Pad2)*%
X130810000Y-33020000D03*
D13*
%TO.P,R4,1*%
%TO.N,Out+*%
X143510000Y-33020000D03*
%TD*%
D10*
%TO.P,R3,2*%
%TO.N,Net-(R3-Pad2)*%
X130810000Y-22860000D03*
D13*
%TO.P,R3,1*%
%TO.N,Net-(C6-Pad2)*%
X143510000Y-22860000D03*
%TD*%
D10*
%TO.P,R2,2*%
%TO.N,Net-(R2-Pad2)*%
X106680000Y-50800000D03*
D13*
%TO.P,R2,1*%
%TO.N,Net-(R2-Pad1)*%
X119380000Y-50800000D03*
%TD*%
D10*
%TO.P,R1,2*%
%TO.N,V_IN-*%
X142240000Y-58420000D03*
D13*
%TO.P,R1,1*%
%TO.N,Out-*%
X154940000Y-58420000D03*
%TD*%
D14*
%TO.P,Q1,3*%
%TO.N,Out+*%
X148590000Y-30480000D03*
%TO.P,Q1,2*%
%TO.N,V_IN+*%
X148590000Y-27940000D03*
D15*
%TO.P,Q1,1*%
%TO.N,Net-(C6-Pad2)*%
X148590000Y-25400000D03*
%TD*%
D16*
%TO.P,L2,2*%
%TO.N,Net-(C2-Pad1)*%
X101600000Y-39370000D03*
D17*
%TO.P,L2,1*%
%TO.N,V_IN+*%
X86360000Y-39370000D03*
%TD*%
D18*
%TO.P,J2,2*%
%TO.N,Out+*%
X163830000Y-53420000D03*
D19*
%TO.P,J2,1*%
%TO.N,Out-*%
X163830000Y-58420000D03*
%TD*%
D18*
%TO.P,J1,2*%
%TO.N,V_IN-*%
X92710000Y-32940000D03*
D19*
%TO.P,J1,1*%
%TO.N,V_IN+*%
X92710000Y-27940000D03*
%TD*%
D13*
%TO.P,C7,2*%
%TO.N,V_IN+*%
X111760000Y-27980000D03*
%TO.P,C7,1*%
%TO.N,V_IN-*%
X111760000Y-30480000D03*
%TD*%
%TO.P,C6,2*%
%TO.N,Net-(C6-Pad2)*%
X139700000Y-36870000D03*
%TO.P,C6,1*%
%TO.N,Out-*%
X139700000Y-39370000D03*
%TD*%
%TO.P,C5,2*%
%TO.N,Out+*%
X154940000Y-52110000D03*
%TO.P,C5,1*%
%TO.N,Out-*%
X154940000Y-54610000D03*
%TD*%
%TO.P,C4,2*%
%TO.N,V_IN+*%
X115570000Y-27980000D03*
%TO.P,C4,1*%
%TO.N,V_IN-*%
X115570000Y-30480000D03*
%TD*%
%TO.P,C3,2*%
%TO.N,V_IN-*%
X104140000Y-31740000D03*
D11*
%TO.P,C3,1*%
%TO.N,V_IN+*%
X104140000Y-27940000D03*
%TD*%
D13*
%TO.P,C2,2*%
%TO.N,V_IN-*%
X111750000Y-39370000D03*
D11*
%TO.P,C2,1*%
%TO.N,Net-(C2-Pad1)*%
X107950000Y-39370000D03*
%TD*%
M02*
