%TF.GenerationSoftware,KiCad,Pcbnew,5.1.8*%
%TF.CreationDate,2021-01-03T19:29:45+03:30*%
%TF.ProjectId,rev-1.3,7265762d-312e-4332-9e6b-696361645f70,rev?*%
%TF.SameCoordinates,Original*%
%TF.FileFunction,Legend,Top*%
%TF.FilePolarity,Positive*%
%FSLAX46Y46*%
G04 Gerber Fmt 4.6, Leading zero omitted, Abs format (unit mm)*
G04 Created by KiCad (PCBNEW 5.1.8) date 2021-01-03 19:29:45*
%MOMM*%
%LPD*%
G01*
G04 APERTURE LIST*
%ADD10C,0.120000*%
%ADD11C,0.150000*%
G04 APERTURE END LIST*
D10*
%TO.C,U1*%
X134730000Y-39310000D02*
X133080000Y-39310000D01*
X134730000Y-57210000D02*
X134730000Y-39310000D01*
X129430000Y-57210000D02*
X134730000Y-57210000D01*
X129430000Y-39310000D02*
X129430000Y-57210000D01*
X131080000Y-39310000D02*
X129430000Y-39310000D01*
X133080000Y-39310000D02*
G75*
G02*
X131080000Y-39310000I-1000000J0D01*
G01*
%TO.C,RV2*%
X103490000Y-61650000D02*
X92870000Y-61650000D01*
X103490000Y-63345000D02*
X103490000Y-61650000D01*
X103490000Y-68345000D02*
X103490000Y-66195000D01*
X103490000Y-73344000D02*
X103490000Y-71195000D01*
X103490000Y-77890000D02*
X103490000Y-76196000D01*
X103490000Y-77890000D02*
X92870000Y-77890000D01*
X100990000Y-69770000D02*
G75*
G03*
X100990000Y-69770000I-8120000J0D01*
G01*
%TO.C,RV1*%
X103490000Y-42600000D02*
X92870000Y-42600000D01*
X103490000Y-44295000D02*
X103490000Y-42600000D01*
X103490000Y-49295000D02*
X103490000Y-47145000D01*
X103490000Y-54294000D02*
X103490000Y-52145000D01*
X103490000Y-58840000D02*
X103490000Y-57146000D01*
X103490000Y-58840000D02*
X92870000Y-58840000D01*
X100990000Y-50720000D02*
G75*
G03*
X100990000Y-50720000I-8120000J0D01*
G01*
%TO.C,R7*%
X136930000Y-66040000D02*
X137620000Y-66040000D01*
X147550000Y-66040000D02*
X146860000Y-66040000D01*
X137620000Y-67760000D02*
X146860000Y-67760000D01*
X137620000Y-64320000D02*
X137620000Y-67760000D01*
X146860000Y-64320000D02*
X137620000Y-64320000D01*
X146860000Y-67760000D02*
X146860000Y-64320000D01*
%TO.C,R6*%
X131850000Y-27940000D02*
X132540000Y-27940000D01*
X142470000Y-27940000D02*
X141780000Y-27940000D01*
X132540000Y-29660000D02*
X141780000Y-29660000D01*
X132540000Y-26220000D02*
X132540000Y-29660000D01*
X141780000Y-26220000D02*
X132540000Y-26220000D01*
X141780000Y-29660000D02*
X141780000Y-26220000D01*
%TO.C,R5*%
X107720000Y-69850000D02*
X108410000Y-69850000D01*
X118340000Y-69850000D02*
X117650000Y-69850000D01*
X108410000Y-71570000D02*
X117650000Y-71570000D01*
X108410000Y-68130000D02*
X108410000Y-71570000D01*
X117650000Y-68130000D02*
X108410000Y-68130000D01*
X117650000Y-71570000D02*
X117650000Y-68130000D01*
%TO.C,R4*%
X131850000Y-33020000D02*
X132540000Y-33020000D01*
X142470000Y-33020000D02*
X141780000Y-33020000D01*
X132540000Y-34740000D02*
X141780000Y-34740000D01*
X132540000Y-31300000D02*
X132540000Y-34740000D01*
X141780000Y-31300000D02*
X132540000Y-31300000D01*
X141780000Y-34740000D02*
X141780000Y-31300000D01*
%TO.C,R3*%
X131850000Y-22860000D02*
X132540000Y-22860000D01*
X142470000Y-22860000D02*
X141780000Y-22860000D01*
X132540000Y-24580000D02*
X141780000Y-24580000D01*
X132540000Y-21140000D02*
X132540000Y-24580000D01*
X141780000Y-21140000D02*
X132540000Y-21140000D01*
X141780000Y-24580000D02*
X141780000Y-21140000D01*
%TO.C,R2*%
X107720000Y-50800000D02*
X108410000Y-50800000D01*
X118340000Y-50800000D02*
X117650000Y-50800000D01*
X108410000Y-52520000D02*
X117650000Y-52520000D01*
X108410000Y-49080000D02*
X108410000Y-52520000D01*
X117650000Y-49080000D02*
X108410000Y-49080000D01*
X117650000Y-52520000D02*
X117650000Y-49080000D01*
%TO.C,R1*%
X143280000Y-58420000D02*
X143970000Y-58420000D01*
X153900000Y-58420000D02*
X153210000Y-58420000D01*
X143970000Y-60140000D02*
X153210000Y-60140000D01*
X143970000Y-56700000D02*
X143970000Y-60140000D01*
X153210000Y-56700000D02*
X143970000Y-56700000D01*
X153210000Y-60140000D02*
X153210000Y-56700000D01*
%TO.C,Q1*%
X152280000Y-30480000D02*
X149740000Y-30480000D01*
X152280000Y-27940000D02*
X149740000Y-27940000D01*
X152280000Y-25400000D02*
X149740000Y-25400000D01*
X168170000Y-33060000D02*
X152280000Y-33060000D01*
X168170000Y-22820000D02*
X152280000Y-22820000D01*
X168170000Y-22820000D02*
X168170000Y-33060000D01*
X152280000Y-22820000D02*
X152280000Y-33060000D01*
%TO.C,L2*%
X100360000Y-39370000D02*
X98850000Y-39370000D01*
X87600000Y-39370000D02*
X89110000Y-39370000D01*
X98850000Y-37250000D02*
X89110000Y-37250000D01*
X98850000Y-41490000D02*
X98850000Y-37250000D01*
X89110000Y-41490000D02*
X98850000Y-41490000D01*
X89110000Y-37250000D02*
X89110000Y-41490000D01*
%TO.C,J2*%
X157530000Y-50220000D02*
X157530000Y-61070000D01*
X162630000Y-50220000D02*
X157530000Y-50220000D01*
X162330000Y-50720000D02*
X162630000Y-50220000D01*
X167730000Y-50720000D02*
X162330000Y-50720000D01*
X167480000Y-50220000D02*
X167730000Y-50720000D01*
X167530000Y-50220000D02*
X167480000Y-50220000D01*
X169430000Y-50220000D02*
X167530000Y-50220000D01*
X169180000Y-50720000D02*
X169430000Y-50220000D01*
X170130000Y-50720000D02*
X169180000Y-50720000D01*
X170130000Y-61070000D02*
X170130000Y-50720000D01*
X157530000Y-61070000D02*
X170130000Y-61070000D01*
%TO.C,J1*%
X99010000Y-36140000D02*
X99010000Y-25290000D01*
X93910000Y-36140000D02*
X99010000Y-36140000D01*
X94210000Y-35640000D02*
X93910000Y-36140000D01*
X88810000Y-35640000D02*
X94210000Y-35640000D01*
X89060000Y-36140000D02*
X88810000Y-35640000D01*
X89010000Y-36140000D02*
X89060000Y-36140000D01*
X87110000Y-36140000D02*
X89010000Y-36140000D01*
X87360000Y-35640000D02*
X87110000Y-36140000D01*
X86410000Y-35640000D02*
X87360000Y-35640000D01*
X86410000Y-25290000D02*
X86410000Y-35640000D01*
X99010000Y-25290000D02*
X86410000Y-25290000D01*
%TO.C,C7*%
X112680000Y-29859000D02*
X112680000Y-28601000D01*
X110840000Y-29859000D02*
X110840000Y-28601000D01*
%TO.C,C6*%
X140620000Y-38749000D02*
X140620000Y-37491000D01*
X138780000Y-38749000D02*
X138780000Y-37491000D01*
%TO.C,C5*%
X155860000Y-53989000D02*
X155860000Y-52731000D01*
X154020000Y-53989000D02*
X154020000Y-52731000D01*
%TO.C,C4*%
X116490000Y-29859000D02*
X116490000Y-28601000D01*
X114650000Y-29859000D02*
X114650000Y-28601000D01*
%TO.C,C3*%
X106855000Y-25830302D02*
X106055000Y-25830302D01*
X106455000Y-25430302D02*
X106455000Y-26230302D01*
X104673000Y-33921000D02*
X103607000Y-33921000D01*
X104908000Y-33881000D02*
X103372000Y-33881000D01*
X105088000Y-33841000D02*
X103192000Y-33841000D01*
X105238000Y-33801000D02*
X103042000Y-33801000D01*
X105369000Y-33761000D02*
X102911000Y-33761000D01*
X105486000Y-33721000D02*
X102794000Y-33721000D01*
X105593000Y-33681000D02*
X102687000Y-33681000D01*
X105692000Y-33641000D02*
X102588000Y-33641000D01*
X105785000Y-33601000D02*
X102495000Y-33601000D01*
X105871000Y-33561000D02*
X102409000Y-33561000D01*
X105953000Y-33521000D02*
X102327000Y-33521000D01*
X106030000Y-33481000D02*
X102250000Y-33481000D01*
X106104000Y-33441000D02*
X102176000Y-33441000D01*
X106174000Y-33401000D02*
X102106000Y-33401000D01*
X106242000Y-33361000D02*
X102038000Y-33361000D01*
X106306000Y-33321000D02*
X101974000Y-33321000D01*
X106368000Y-33281000D02*
X101912000Y-33281000D01*
X106427000Y-33241000D02*
X101853000Y-33241000D01*
X106485000Y-33201000D02*
X101795000Y-33201000D01*
X106540000Y-33161000D02*
X101740000Y-33161000D01*
X106594000Y-33121000D02*
X101686000Y-33121000D01*
X106645000Y-33081000D02*
X101635000Y-33081000D01*
X106696000Y-33041000D02*
X101584000Y-33041000D01*
X106744000Y-33001000D02*
X101536000Y-33001000D01*
X106791000Y-32961000D02*
X101489000Y-32961000D01*
X106837000Y-32921000D02*
X101443000Y-32921000D01*
X106881000Y-32881000D02*
X101399000Y-32881000D01*
X106924000Y-32841000D02*
X101356000Y-32841000D01*
X106966000Y-32801000D02*
X101314000Y-32801000D01*
X103100000Y-32761000D02*
X101273000Y-32761000D01*
X107007000Y-32761000D02*
X105180000Y-32761000D01*
X103100000Y-32721000D02*
X101233000Y-32721000D01*
X107047000Y-32721000D02*
X105180000Y-32721000D01*
X103100000Y-32681000D02*
X101195000Y-32681000D01*
X107085000Y-32681000D02*
X105180000Y-32681000D01*
X103100000Y-32641000D02*
X101157000Y-32641000D01*
X107123000Y-32641000D02*
X105180000Y-32641000D01*
X103100000Y-32601000D02*
X101121000Y-32601000D01*
X107159000Y-32601000D02*
X105180000Y-32601000D01*
X103100000Y-32561000D02*
X101085000Y-32561000D01*
X107195000Y-32561000D02*
X105180000Y-32561000D01*
X103100000Y-32521000D02*
X101050000Y-32521000D01*
X107230000Y-32521000D02*
X105180000Y-32521000D01*
X103100000Y-32481000D02*
X101016000Y-32481000D01*
X107264000Y-32481000D02*
X105180000Y-32481000D01*
X103100000Y-32441000D02*
X100984000Y-32441000D01*
X107296000Y-32441000D02*
X105180000Y-32441000D01*
X103100000Y-32401000D02*
X100951000Y-32401000D01*
X107329000Y-32401000D02*
X105180000Y-32401000D01*
X103100000Y-32361000D02*
X100920000Y-32361000D01*
X107360000Y-32361000D02*
X105180000Y-32361000D01*
X103100000Y-32321000D02*
X100890000Y-32321000D01*
X107390000Y-32321000D02*
X105180000Y-32321000D01*
X103100000Y-32281000D02*
X100860000Y-32281000D01*
X107420000Y-32281000D02*
X105180000Y-32281000D01*
X103100000Y-32241000D02*
X100831000Y-32241000D01*
X107449000Y-32241000D02*
X105180000Y-32241000D01*
X103100000Y-32201000D02*
X100802000Y-32201000D01*
X107478000Y-32201000D02*
X105180000Y-32201000D01*
X103100000Y-32161000D02*
X100775000Y-32161000D01*
X107505000Y-32161000D02*
X105180000Y-32161000D01*
X103100000Y-32121000D02*
X100748000Y-32121000D01*
X107532000Y-32121000D02*
X105180000Y-32121000D01*
X103100000Y-32081000D02*
X100722000Y-32081000D01*
X107558000Y-32081000D02*
X105180000Y-32081000D01*
X103100000Y-32041000D02*
X100696000Y-32041000D01*
X107584000Y-32041000D02*
X105180000Y-32041000D01*
X103100000Y-32001000D02*
X100671000Y-32001000D01*
X107609000Y-32001000D02*
X105180000Y-32001000D01*
X103100000Y-31961000D02*
X100647000Y-31961000D01*
X107633000Y-31961000D02*
X105180000Y-31961000D01*
X103100000Y-31921000D02*
X100623000Y-31921000D01*
X107657000Y-31921000D02*
X105180000Y-31921000D01*
X103100000Y-31881000D02*
X100600000Y-31881000D01*
X107680000Y-31881000D02*
X105180000Y-31881000D01*
X103100000Y-31841000D02*
X100578000Y-31841000D01*
X107702000Y-31841000D02*
X105180000Y-31841000D01*
X103100000Y-31801000D02*
X100556000Y-31801000D01*
X107724000Y-31801000D02*
X105180000Y-31801000D01*
X103100000Y-31761000D02*
X100534000Y-31761000D01*
X107746000Y-31761000D02*
X105180000Y-31761000D01*
X103100000Y-31721000D02*
X100513000Y-31721000D01*
X107767000Y-31721000D02*
X105180000Y-31721000D01*
X103100000Y-31681000D02*
X100493000Y-31681000D01*
X107787000Y-31681000D02*
X105180000Y-31681000D01*
X103100000Y-31641000D02*
X100474000Y-31641000D01*
X107806000Y-31641000D02*
X105180000Y-31641000D01*
X103100000Y-31601000D02*
X100454000Y-31601000D01*
X107826000Y-31601000D02*
X105180000Y-31601000D01*
X103100000Y-31561000D02*
X100436000Y-31561000D01*
X107844000Y-31561000D02*
X105180000Y-31561000D01*
X103100000Y-31521000D02*
X100418000Y-31521000D01*
X107862000Y-31521000D02*
X105180000Y-31521000D01*
X103100000Y-31481000D02*
X100400000Y-31481000D01*
X107880000Y-31481000D02*
X105180000Y-31481000D01*
X103100000Y-31441000D02*
X100383000Y-31441000D01*
X107897000Y-31441000D02*
X105180000Y-31441000D01*
X103100000Y-31401000D02*
X100366000Y-31401000D01*
X107914000Y-31401000D02*
X105180000Y-31401000D01*
X103100000Y-31361000D02*
X100350000Y-31361000D01*
X107930000Y-31361000D02*
X105180000Y-31361000D01*
X103100000Y-31321000D02*
X100335000Y-31321000D01*
X107945000Y-31321000D02*
X105180000Y-31321000D01*
X103100000Y-31281000D02*
X100319000Y-31281000D01*
X107961000Y-31281000D02*
X105180000Y-31281000D01*
X103100000Y-31241000D02*
X100305000Y-31241000D01*
X107975000Y-31241000D02*
X105180000Y-31241000D01*
X103100000Y-31201000D02*
X100290000Y-31201000D01*
X107990000Y-31201000D02*
X105180000Y-31201000D01*
X103100000Y-31161000D02*
X100277000Y-31161000D01*
X108003000Y-31161000D02*
X105180000Y-31161000D01*
X103100000Y-31121000D02*
X100263000Y-31121000D01*
X108017000Y-31121000D02*
X105180000Y-31121000D01*
X103100000Y-31081000D02*
X100251000Y-31081000D01*
X108029000Y-31081000D02*
X105180000Y-31081000D01*
X103100000Y-31041000D02*
X100238000Y-31041000D01*
X108042000Y-31041000D02*
X105180000Y-31041000D01*
X103100000Y-31001000D02*
X100226000Y-31001000D01*
X108054000Y-31001000D02*
X105180000Y-31001000D01*
X103100000Y-30961000D02*
X100215000Y-30961000D01*
X108065000Y-30961000D02*
X105180000Y-30961000D01*
X103100000Y-30921000D02*
X100204000Y-30921000D01*
X108076000Y-30921000D02*
X105180000Y-30921000D01*
X103100000Y-30881000D02*
X100193000Y-30881000D01*
X108087000Y-30881000D02*
X105180000Y-30881000D01*
X103100000Y-30841000D02*
X100183000Y-30841000D01*
X108097000Y-30841000D02*
X105180000Y-30841000D01*
X103100000Y-30801000D02*
X100173000Y-30801000D01*
X108107000Y-30801000D02*
X105180000Y-30801000D01*
X103100000Y-30761000D02*
X100164000Y-30761000D01*
X108116000Y-30761000D02*
X105180000Y-30761000D01*
X103100000Y-30721000D02*
X100155000Y-30721000D01*
X108125000Y-30721000D02*
X105180000Y-30721000D01*
X108134000Y-30681000D02*
X100146000Y-30681000D01*
X108142000Y-30641000D02*
X100138000Y-30641000D01*
X108150000Y-30601000D02*
X100130000Y-30601000D01*
X108157000Y-30561000D02*
X100123000Y-30561000D01*
X108164000Y-30520000D02*
X100116000Y-30520000D01*
X108170000Y-30480000D02*
X100110000Y-30480000D01*
X108177000Y-30440000D02*
X100103000Y-30440000D01*
X108182000Y-30400000D02*
X100098000Y-30400000D01*
X108188000Y-30360000D02*
X100092000Y-30360000D01*
X108192000Y-30320000D02*
X100088000Y-30320000D01*
X108197000Y-30280000D02*
X100083000Y-30280000D01*
X108201000Y-30240000D02*
X100079000Y-30240000D01*
X108205000Y-30200000D02*
X100075000Y-30200000D01*
X108208000Y-30160000D02*
X100072000Y-30160000D01*
X108211000Y-30120000D02*
X100069000Y-30120000D01*
X108214000Y-30080000D02*
X100066000Y-30080000D01*
X108216000Y-30040000D02*
X100064000Y-30040000D01*
X108217000Y-30000000D02*
X100063000Y-30000000D01*
X108219000Y-29960000D02*
X100061000Y-29960000D01*
X108220000Y-29920000D02*
X100060000Y-29920000D01*
X108220000Y-29880000D02*
X100060000Y-29880000D01*
X108220000Y-29840000D02*
X100060000Y-29840000D01*
X108260000Y-29840000D02*
G75*
G03*
X108260000Y-29840000I-4120000J0D01*
G01*
%TO.C,C2*%
X105840302Y-36655000D02*
X105840302Y-37455000D01*
X105440302Y-37055000D02*
X106240302Y-37055000D01*
X113931000Y-38837000D02*
X113931000Y-39903000D01*
X113891000Y-38602000D02*
X113891000Y-40138000D01*
X113851000Y-38422000D02*
X113851000Y-40318000D01*
X113811000Y-38272000D02*
X113811000Y-40468000D01*
X113771000Y-38141000D02*
X113771000Y-40599000D01*
X113731000Y-38024000D02*
X113731000Y-40716000D01*
X113691000Y-37917000D02*
X113691000Y-40823000D01*
X113651000Y-37818000D02*
X113651000Y-40922000D01*
X113611000Y-37725000D02*
X113611000Y-41015000D01*
X113571000Y-37639000D02*
X113571000Y-41101000D01*
X113531000Y-37557000D02*
X113531000Y-41183000D01*
X113491000Y-37480000D02*
X113491000Y-41260000D01*
X113451000Y-37406000D02*
X113451000Y-41334000D01*
X113411000Y-37336000D02*
X113411000Y-41404000D01*
X113371000Y-37268000D02*
X113371000Y-41472000D01*
X113331000Y-37204000D02*
X113331000Y-41536000D01*
X113291000Y-37142000D02*
X113291000Y-41598000D01*
X113251000Y-37083000D02*
X113251000Y-41657000D01*
X113211000Y-37025000D02*
X113211000Y-41715000D01*
X113171000Y-36970000D02*
X113171000Y-41770000D01*
X113131000Y-36916000D02*
X113131000Y-41824000D01*
X113091000Y-36865000D02*
X113091000Y-41875000D01*
X113051000Y-36814000D02*
X113051000Y-41926000D01*
X113011000Y-36766000D02*
X113011000Y-41974000D01*
X112971000Y-36719000D02*
X112971000Y-42021000D01*
X112931000Y-36673000D02*
X112931000Y-42067000D01*
X112891000Y-36629000D02*
X112891000Y-42111000D01*
X112851000Y-36586000D02*
X112851000Y-42154000D01*
X112811000Y-36544000D02*
X112811000Y-42196000D01*
X112771000Y-40410000D02*
X112771000Y-42237000D01*
X112771000Y-36503000D02*
X112771000Y-38330000D01*
X112731000Y-40410000D02*
X112731000Y-42277000D01*
X112731000Y-36463000D02*
X112731000Y-38330000D01*
X112691000Y-40410000D02*
X112691000Y-42315000D01*
X112691000Y-36425000D02*
X112691000Y-38330000D01*
X112651000Y-40410000D02*
X112651000Y-42353000D01*
X112651000Y-36387000D02*
X112651000Y-38330000D01*
X112611000Y-40410000D02*
X112611000Y-42389000D01*
X112611000Y-36351000D02*
X112611000Y-38330000D01*
X112571000Y-40410000D02*
X112571000Y-42425000D01*
X112571000Y-36315000D02*
X112571000Y-38330000D01*
X112531000Y-40410000D02*
X112531000Y-42460000D01*
X112531000Y-36280000D02*
X112531000Y-38330000D01*
X112491000Y-40410000D02*
X112491000Y-42494000D01*
X112491000Y-36246000D02*
X112491000Y-38330000D01*
X112451000Y-40410000D02*
X112451000Y-42526000D01*
X112451000Y-36214000D02*
X112451000Y-38330000D01*
X112411000Y-40410000D02*
X112411000Y-42559000D01*
X112411000Y-36181000D02*
X112411000Y-38330000D01*
X112371000Y-40410000D02*
X112371000Y-42590000D01*
X112371000Y-36150000D02*
X112371000Y-38330000D01*
X112331000Y-40410000D02*
X112331000Y-42620000D01*
X112331000Y-36120000D02*
X112331000Y-38330000D01*
X112291000Y-40410000D02*
X112291000Y-42650000D01*
X112291000Y-36090000D02*
X112291000Y-38330000D01*
X112251000Y-40410000D02*
X112251000Y-42679000D01*
X112251000Y-36061000D02*
X112251000Y-38330000D01*
X112211000Y-40410000D02*
X112211000Y-42708000D01*
X112211000Y-36032000D02*
X112211000Y-38330000D01*
X112171000Y-40410000D02*
X112171000Y-42735000D01*
X112171000Y-36005000D02*
X112171000Y-38330000D01*
X112131000Y-40410000D02*
X112131000Y-42762000D01*
X112131000Y-35978000D02*
X112131000Y-38330000D01*
X112091000Y-40410000D02*
X112091000Y-42788000D01*
X112091000Y-35952000D02*
X112091000Y-38330000D01*
X112051000Y-40410000D02*
X112051000Y-42814000D01*
X112051000Y-35926000D02*
X112051000Y-38330000D01*
X112011000Y-40410000D02*
X112011000Y-42839000D01*
X112011000Y-35901000D02*
X112011000Y-38330000D01*
X111971000Y-40410000D02*
X111971000Y-42863000D01*
X111971000Y-35877000D02*
X111971000Y-38330000D01*
X111931000Y-40410000D02*
X111931000Y-42887000D01*
X111931000Y-35853000D02*
X111931000Y-38330000D01*
X111891000Y-40410000D02*
X111891000Y-42910000D01*
X111891000Y-35830000D02*
X111891000Y-38330000D01*
X111851000Y-40410000D02*
X111851000Y-42932000D01*
X111851000Y-35808000D02*
X111851000Y-38330000D01*
X111811000Y-40410000D02*
X111811000Y-42954000D01*
X111811000Y-35786000D02*
X111811000Y-38330000D01*
X111771000Y-40410000D02*
X111771000Y-42976000D01*
X111771000Y-35764000D02*
X111771000Y-38330000D01*
X111731000Y-40410000D02*
X111731000Y-42997000D01*
X111731000Y-35743000D02*
X111731000Y-38330000D01*
X111691000Y-40410000D02*
X111691000Y-43017000D01*
X111691000Y-35723000D02*
X111691000Y-38330000D01*
X111651000Y-40410000D02*
X111651000Y-43036000D01*
X111651000Y-35704000D02*
X111651000Y-38330000D01*
X111611000Y-40410000D02*
X111611000Y-43056000D01*
X111611000Y-35684000D02*
X111611000Y-38330000D01*
X111571000Y-40410000D02*
X111571000Y-43074000D01*
X111571000Y-35666000D02*
X111571000Y-38330000D01*
X111531000Y-40410000D02*
X111531000Y-43092000D01*
X111531000Y-35648000D02*
X111531000Y-38330000D01*
X111491000Y-40410000D02*
X111491000Y-43110000D01*
X111491000Y-35630000D02*
X111491000Y-38330000D01*
X111451000Y-40410000D02*
X111451000Y-43127000D01*
X111451000Y-35613000D02*
X111451000Y-38330000D01*
X111411000Y-40410000D02*
X111411000Y-43144000D01*
X111411000Y-35596000D02*
X111411000Y-38330000D01*
X111371000Y-40410000D02*
X111371000Y-43160000D01*
X111371000Y-35580000D02*
X111371000Y-38330000D01*
X111331000Y-40410000D02*
X111331000Y-43175000D01*
X111331000Y-35565000D02*
X111331000Y-38330000D01*
X111291000Y-40410000D02*
X111291000Y-43191000D01*
X111291000Y-35549000D02*
X111291000Y-38330000D01*
X111251000Y-40410000D02*
X111251000Y-43205000D01*
X111251000Y-35535000D02*
X111251000Y-38330000D01*
X111211000Y-40410000D02*
X111211000Y-43220000D01*
X111211000Y-35520000D02*
X111211000Y-38330000D01*
X111171000Y-40410000D02*
X111171000Y-43233000D01*
X111171000Y-35507000D02*
X111171000Y-38330000D01*
X111131000Y-40410000D02*
X111131000Y-43247000D01*
X111131000Y-35493000D02*
X111131000Y-38330000D01*
X111091000Y-40410000D02*
X111091000Y-43259000D01*
X111091000Y-35481000D02*
X111091000Y-38330000D01*
X111051000Y-40410000D02*
X111051000Y-43272000D01*
X111051000Y-35468000D02*
X111051000Y-38330000D01*
X111011000Y-40410000D02*
X111011000Y-43284000D01*
X111011000Y-35456000D02*
X111011000Y-38330000D01*
X110971000Y-40410000D02*
X110971000Y-43295000D01*
X110971000Y-35445000D02*
X110971000Y-38330000D01*
X110931000Y-40410000D02*
X110931000Y-43306000D01*
X110931000Y-35434000D02*
X110931000Y-38330000D01*
X110891000Y-40410000D02*
X110891000Y-43317000D01*
X110891000Y-35423000D02*
X110891000Y-38330000D01*
X110851000Y-40410000D02*
X110851000Y-43327000D01*
X110851000Y-35413000D02*
X110851000Y-38330000D01*
X110811000Y-40410000D02*
X110811000Y-43337000D01*
X110811000Y-35403000D02*
X110811000Y-38330000D01*
X110771000Y-40410000D02*
X110771000Y-43346000D01*
X110771000Y-35394000D02*
X110771000Y-38330000D01*
X110731000Y-40410000D02*
X110731000Y-43355000D01*
X110731000Y-35385000D02*
X110731000Y-38330000D01*
X110691000Y-35376000D02*
X110691000Y-43364000D01*
X110651000Y-35368000D02*
X110651000Y-43372000D01*
X110611000Y-35360000D02*
X110611000Y-43380000D01*
X110571000Y-35353000D02*
X110571000Y-43387000D01*
X110530000Y-35346000D02*
X110530000Y-43394000D01*
X110490000Y-35340000D02*
X110490000Y-43400000D01*
X110450000Y-35333000D02*
X110450000Y-43407000D01*
X110410000Y-35328000D02*
X110410000Y-43412000D01*
X110370000Y-35322000D02*
X110370000Y-43418000D01*
X110330000Y-35318000D02*
X110330000Y-43422000D01*
X110290000Y-35313000D02*
X110290000Y-43427000D01*
X110250000Y-35309000D02*
X110250000Y-43431000D01*
X110210000Y-35305000D02*
X110210000Y-43435000D01*
X110170000Y-35302000D02*
X110170000Y-43438000D01*
X110130000Y-35299000D02*
X110130000Y-43441000D01*
X110090000Y-35296000D02*
X110090000Y-43444000D01*
X110050000Y-35294000D02*
X110050000Y-43446000D01*
X110010000Y-35293000D02*
X110010000Y-43447000D01*
X109970000Y-35291000D02*
X109970000Y-43449000D01*
X109930000Y-35290000D02*
X109930000Y-43450000D01*
X109890000Y-35290000D02*
X109890000Y-43450000D01*
X109850000Y-35290000D02*
X109850000Y-43450000D01*
X113970000Y-39370000D02*
G75*
G03*
X113970000Y-39370000I-4120000J0D01*
G01*
%TO.C,U1*%
D11*
X131318095Y-37762380D02*
X131318095Y-38571904D01*
X131365714Y-38667142D01*
X131413333Y-38714761D01*
X131508571Y-38762380D01*
X131699047Y-38762380D01*
X131794285Y-38714761D01*
X131841904Y-38667142D01*
X131889523Y-38571904D01*
X131889523Y-37762380D01*
X132889523Y-38762380D02*
X132318095Y-38762380D01*
X132603809Y-38762380D02*
X132603809Y-37762380D01*
X132508571Y-37905238D01*
X132413333Y-38000476D01*
X132318095Y-38048095D01*
%TO.C,RV2*%
X93859761Y-79472380D02*
X93526428Y-78996190D01*
X93288333Y-79472380D02*
X93288333Y-78472380D01*
X93669285Y-78472380D01*
X93764523Y-78520000D01*
X93812142Y-78567619D01*
X93859761Y-78662857D01*
X93859761Y-78805714D01*
X93812142Y-78900952D01*
X93764523Y-78948571D01*
X93669285Y-78996190D01*
X93288333Y-78996190D01*
X94145476Y-78472380D02*
X94478809Y-79472380D01*
X94812142Y-78472380D01*
X95097857Y-78567619D02*
X95145476Y-78520000D01*
X95240714Y-78472380D01*
X95478809Y-78472380D01*
X95574047Y-78520000D01*
X95621666Y-78567619D01*
X95669285Y-78662857D01*
X95669285Y-78758095D01*
X95621666Y-78900952D01*
X95050238Y-79472380D01*
X95669285Y-79472380D01*
%TO.C,RV1*%
X93859761Y-60422380D02*
X93526428Y-59946190D01*
X93288333Y-60422380D02*
X93288333Y-59422380D01*
X93669285Y-59422380D01*
X93764523Y-59470000D01*
X93812142Y-59517619D01*
X93859761Y-59612857D01*
X93859761Y-59755714D01*
X93812142Y-59850952D01*
X93764523Y-59898571D01*
X93669285Y-59946190D01*
X93288333Y-59946190D01*
X94145476Y-59422380D02*
X94478809Y-60422380D01*
X94812142Y-59422380D01*
X95669285Y-60422380D02*
X95097857Y-60422380D01*
X95383571Y-60422380D02*
X95383571Y-59422380D01*
X95288333Y-59565238D01*
X95193095Y-59660476D01*
X95097857Y-59708095D01*
%TO.C,R7*%
X142073333Y-69212380D02*
X141740000Y-68736190D01*
X141501904Y-69212380D02*
X141501904Y-68212380D01*
X141882857Y-68212380D01*
X141978095Y-68260000D01*
X142025714Y-68307619D01*
X142073333Y-68402857D01*
X142073333Y-68545714D01*
X142025714Y-68640952D01*
X141978095Y-68688571D01*
X141882857Y-68736190D01*
X141501904Y-68736190D01*
X142406666Y-68212380D02*
X143073333Y-68212380D01*
X142644761Y-69212380D01*
%TO.C,R6*%
X136993333Y-31112380D02*
X136660000Y-30636190D01*
X136421904Y-31112380D02*
X136421904Y-30112380D01*
X136802857Y-30112380D01*
X136898095Y-30160000D01*
X136945714Y-30207619D01*
X136993333Y-30302857D01*
X136993333Y-30445714D01*
X136945714Y-30540952D01*
X136898095Y-30588571D01*
X136802857Y-30636190D01*
X136421904Y-30636190D01*
X137850476Y-30112380D02*
X137660000Y-30112380D01*
X137564761Y-30160000D01*
X137517142Y-30207619D01*
X137421904Y-30350476D01*
X137374285Y-30540952D01*
X137374285Y-30921904D01*
X137421904Y-31017142D01*
X137469523Y-31064761D01*
X137564761Y-31112380D01*
X137755238Y-31112380D01*
X137850476Y-31064761D01*
X137898095Y-31017142D01*
X137945714Y-30921904D01*
X137945714Y-30683809D01*
X137898095Y-30588571D01*
X137850476Y-30540952D01*
X137755238Y-30493333D01*
X137564761Y-30493333D01*
X137469523Y-30540952D01*
X137421904Y-30588571D01*
X137374285Y-30683809D01*
%TO.C,R5*%
X112863333Y-73022380D02*
X112530000Y-72546190D01*
X112291904Y-73022380D02*
X112291904Y-72022380D01*
X112672857Y-72022380D01*
X112768095Y-72070000D01*
X112815714Y-72117619D01*
X112863333Y-72212857D01*
X112863333Y-72355714D01*
X112815714Y-72450952D01*
X112768095Y-72498571D01*
X112672857Y-72546190D01*
X112291904Y-72546190D01*
X113768095Y-72022380D02*
X113291904Y-72022380D01*
X113244285Y-72498571D01*
X113291904Y-72450952D01*
X113387142Y-72403333D01*
X113625238Y-72403333D01*
X113720476Y-72450952D01*
X113768095Y-72498571D01*
X113815714Y-72593809D01*
X113815714Y-72831904D01*
X113768095Y-72927142D01*
X113720476Y-72974761D01*
X113625238Y-73022380D01*
X113387142Y-73022380D01*
X113291904Y-72974761D01*
X113244285Y-72927142D01*
%TO.C,R4*%
X136993333Y-36192380D02*
X136660000Y-35716190D01*
X136421904Y-36192380D02*
X136421904Y-35192380D01*
X136802857Y-35192380D01*
X136898095Y-35240000D01*
X136945714Y-35287619D01*
X136993333Y-35382857D01*
X136993333Y-35525714D01*
X136945714Y-35620952D01*
X136898095Y-35668571D01*
X136802857Y-35716190D01*
X136421904Y-35716190D01*
X137850476Y-35525714D02*
X137850476Y-36192380D01*
X137612380Y-35144761D02*
X137374285Y-35859047D01*
X137993333Y-35859047D01*
%TO.C,R3*%
X136993333Y-26032380D02*
X136660000Y-25556190D01*
X136421904Y-26032380D02*
X136421904Y-25032380D01*
X136802857Y-25032380D01*
X136898095Y-25080000D01*
X136945714Y-25127619D01*
X136993333Y-25222857D01*
X136993333Y-25365714D01*
X136945714Y-25460952D01*
X136898095Y-25508571D01*
X136802857Y-25556190D01*
X136421904Y-25556190D01*
X137326666Y-25032380D02*
X137945714Y-25032380D01*
X137612380Y-25413333D01*
X137755238Y-25413333D01*
X137850476Y-25460952D01*
X137898095Y-25508571D01*
X137945714Y-25603809D01*
X137945714Y-25841904D01*
X137898095Y-25937142D01*
X137850476Y-25984761D01*
X137755238Y-26032380D01*
X137469523Y-26032380D01*
X137374285Y-25984761D01*
X137326666Y-25937142D01*
%TO.C,R2*%
X112863333Y-53972380D02*
X112530000Y-53496190D01*
X112291904Y-53972380D02*
X112291904Y-52972380D01*
X112672857Y-52972380D01*
X112768095Y-53020000D01*
X112815714Y-53067619D01*
X112863333Y-53162857D01*
X112863333Y-53305714D01*
X112815714Y-53400952D01*
X112768095Y-53448571D01*
X112672857Y-53496190D01*
X112291904Y-53496190D01*
X113244285Y-53067619D02*
X113291904Y-53020000D01*
X113387142Y-52972380D01*
X113625238Y-52972380D01*
X113720476Y-53020000D01*
X113768095Y-53067619D01*
X113815714Y-53162857D01*
X113815714Y-53258095D01*
X113768095Y-53400952D01*
X113196666Y-53972380D01*
X113815714Y-53972380D01*
%TO.C,R1*%
X148423333Y-61592380D02*
X148090000Y-61116190D01*
X147851904Y-61592380D02*
X147851904Y-60592380D01*
X148232857Y-60592380D01*
X148328095Y-60640000D01*
X148375714Y-60687619D01*
X148423333Y-60782857D01*
X148423333Y-60925714D01*
X148375714Y-61020952D01*
X148328095Y-61068571D01*
X148232857Y-61116190D01*
X147851904Y-61116190D01*
X149375714Y-61592380D02*
X148804285Y-61592380D01*
X149090000Y-61592380D02*
X149090000Y-60592380D01*
X148994761Y-60735238D01*
X148899523Y-60830476D01*
X148804285Y-60878095D01*
%TO.C,Q1*%
X169717619Y-28035238D02*
X169670000Y-28130476D01*
X169574761Y-28225714D01*
X169431904Y-28368571D01*
X169384285Y-28463809D01*
X169384285Y-28559047D01*
X169622380Y-28511428D02*
X169574761Y-28606666D01*
X169479523Y-28701904D01*
X169289047Y-28749523D01*
X168955714Y-28749523D01*
X168765238Y-28701904D01*
X168670000Y-28606666D01*
X168622380Y-28511428D01*
X168622380Y-28320952D01*
X168670000Y-28225714D01*
X168765238Y-28130476D01*
X168955714Y-28082857D01*
X169289047Y-28082857D01*
X169479523Y-28130476D01*
X169574761Y-28225714D01*
X169622380Y-28320952D01*
X169622380Y-28511428D01*
X169622380Y-27130476D02*
X169622380Y-27701904D01*
X169622380Y-27416190D02*
X168622380Y-27416190D01*
X168765238Y-27511428D01*
X168860476Y-27606666D01*
X168908095Y-27701904D01*
%TO.C,L2*%
X93813333Y-36702380D02*
X93337142Y-36702380D01*
X93337142Y-35702380D01*
X94099047Y-35797619D02*
X94146666Y-35750000D01*
X94241904Y-35702380D01*
X94480000Y-35702380D01*
X94575238Y-35750000D01*
X94622857Y-35797619D01*
X94670476Y-35892857D01*
X94670476Y-35988095D01*
X94622857Y-36130952D01*
X94051428Y-36702380D01*
X94670476Y-36702380D01*
%TO.C,J2*%
X156292380Y-60673333D02*
X157006666Y-60673333D01*
X157149523Y-60720952D01*
X157244761Y-60816190D01*
X157292380Y-60959047D01*
X157292380Y-61054285D01*
X156387619Y-60244761D02*
X156340000Y-60197142D01*
X156292380Y-60101904D01*
X156292380Y-59863809D01*
X156340000Y-59768571D01*
X156387619Y-59720952D01*
X156482857Y-59673333D01*
X156578095Y-59673333D01*
X156720952Y-59720952D01*
X157292380Y-60292380D01*
X157292380Y-59673333D01*
%TO.C,J1*%
X99152380Y-26353333D02*
X99866666Y-26353333D01*
X100009523Y-26400952D01*
X100104761Y-26496190D01*
X100152380Y-26639047D01*
X100152380Y-26734285D01*
X100152380Y-25353333D02*
X100152380Y-25924761D01*
X100152380Y-25639047D02*
X99152380Y-25639047D01*
X99295238Y-25734285D01*
X99390476Y-25829523D01*
X99438095Y-25924761D01*
%TO.C,C7*%
X110067142Y-29396666D02*
X110114761Y-29444285D01*
X110162380Y-29587142D01*
X110162380Y-29682380D01*
X110114761Y-29825238D01*
X110019523Y-29920476D01*
X109924285Y-29968095D01*
X109733809Y-30015714D01*
X109590952Y-30015714D01*
X109400476Y-29968095D01*
X109305238Y-29920476D01*
X109210000Y-29825238D01*
X109162380Y-29682380D01*
X109162380Y-29587142D01*
X109210000Y-29444285D01*
X109257619Y-29396666D01*
X109162380Y-29063333D02*
X109162380Y-28396666D01*
X110162380Y-28825238D01*
%TO.C,C6*%
X138007142Y-38286666D02*
X138054761Y-38334285D01*
X138102380Y-38477142D01*
X138102380Y-38572380D01*
X138054761Y-38715238D01*
X137959523Y-38810476D01*
X137864285Y-38858095D01*
X137673809Y-38905714D01*
X137530952Y-38905714D01*
X137340476Y-38858095D01*
X137245238Y-38810476D01*
X137150000Y-38715238D01*
X137102380Y-38572380D01*
X137102380Y-38477142D01*
X137150000Y-38334285D01*
X137197619Y-38286666D01*
X137102380Y-37429523D02*
X137102380Y-37620000D01*
X137150000Y-37715238D01*
X137197619Y-37762857D01*
X137340476Y-37858095D01*
X137530952Y-37905714D01*
X137911904Y-37905714D01*
X138007142Y-37858095D01*
X138054761Y-37810476D01*
X138102380Y-37715238D01*
X138102380Y-37524761D01*
X138054761Y-37429523D01*
X138007142Y-37381904D01*
X137911904Y-37334285D01*
X137673809Y-37334285D01*
X137578571Y-37381904D01*
X137530952Y-37429523D01*
X137483333Y-37524761D01*
X137483333Y-37715238D01*
X137530952Y-37810476D01*
X137578571Y-37858095D01*
X137673809Y-37905714D01*
%TO.C,C5*%
X153247142Y-53526666D02*
X153294761Y-53574285D01*
X153342380Y-53717142D01*
X153342380Y-53812380D01*
X153294761Y-53955238D01*
X153199523Y-54050476D01*
X153104285Y-54098095D01*
X152913809Y-54145714D01*
X152770952Y-54145714D01*
X152580476Y-54098095D01*
X152485238Y-54050476D01*
X152390000Y-53955238D01*
X152342380Y-53812380D01*
X152342380Y-53717142D01*
X152390000Y-53574285D01*
X152437619Y-53526666D01*
X152342380Y-52621904D02*
X152342380Y-53098095D01*
X152818571Y-53145714D01*
X152770952Y-53098095D01*
X152723333Y-53002857D01*
X152723333Y-52764761D01*
X152770952Y-52669523D01*
X152818571Y-52621904D01*
X152913809Y-52574285D01*
X153151904Y-52574285D01*
X153247142Y-52621904D01*
X153294761Y-52669523D01*
X153342380Y-52764761D01*
X153342380Y-53002857D01*
X153294761Y-53098095D01*
X153247142Y-53145714D01*
%TO.C,C4*%
X113877142Y-29396666D02*
X113924761Y-29444285D01*
X113972380Y-29587142D01*
X113972380Y-29682380D01*
X113924761Y-29825238D01*
X113829523Y-29920476D01*
X113734285Y-29968095D01*
X113543809Y-30015714D01*
X113400952Y-30015714D01*
X113210476Y-29968095D01*
X113115238Y-29920476D01*
X113020000Y-29825238D01*
X112972380Y-29682380D01*
X112972380Y-29587142D01*
X113020000Y-29444285D01*
X113067619Y-29396666D01*
X113305714Y-28539523D02*
X113972380Y-28539523D01*
X112924761Y-28777619D02*
X113639047Y-29015714D01*
X113639047Y-28396666D01*
%TO.C,C3*%
X109747142Y-30006666D02*
X109794761Y-30054285D01*
X109842380Y-30197142D01*
X109842380Y-30292380D01*
X109794761Y-30435238D01*
X109699523Y-30530476D01*
X109604285Y-30578095D01*
X109413809Y-30625714D01*
X109270952Y-30625714D01*
X109080476Y-30578095D01*
X108985238Y-30530476D01*
X108890000Y-30435238D01*
X108842380Y-30292380D01*
X108842380Y-30197142D01*
X108890000Y-30054285D01*
X108937619Y-30006666D01*
X108842380Y-29673333D02*
X108842380Y-29054285D01*
X109223333Y-29387619D01*
X109223333Y-29244761D01*
X109270952Y-29149523D01*
X109318571Y-29101904D01*
X109413809Y-29054285D01*
X109651904Y-29054285D01*
X109747142Y-29101904D01*
X109794761Y-29149523D01*
X109842380Y-29244761D01*
X109842380Y-29530476D01*
X109794761Y-29625714D01*
X109747142Y-29673333D01*
%TO.C,C2*%
X109683333Y-34477142D02*
X109635714Y-34524761D01*
X109492857Y-34572380D01*
X109397619Y-34572380D01*
X109254761Y-34524761D01*
X109159523Y-34429523D01*
X109111904Y-34334285D01*
X109064285Y-34143809D01*
X109064285Y-34000952D01*
X109111904Y-33810476D01*
X109159523Y-33715238D01*
X109254761Y-33620000D01*
X109397619Y-33572380D01*
X109492857Y-33572380D01*
X109635714Y-33620000D01*
X109683333Y-33667619D01*
X110064285Y-33667619D02*
X110111904Y-33620000D01*
X110207142Y-33572380D01*
X110445238Y-33572380D01*
X110540476Y-33620000D01*
X110588095Y-33667619D01*
X110635714Y-33762857D01*
X110635714Y-33858095D01*
X110588095Y-34000952D01*
X110016666Y-34572380D01*
X110635714Y-34572380D01*
%TD*%
M02*
