%TF.GenerationSoftware,KiCad,Pcbnew,5.1.8*%
%TF.CreationDate,2021-01-03T19:29:45+03:30*%
%TF.ProjectId,rev-1.3,7265762d-312e-4332-9e6b-696361645f70,rev?*%
%TF.SameCoordinates,Original*%
%TF.FileFunction,Copper,L1,Top*%
%TF.FilePolarity,Positive*%
%FSLAX46Y46*%
G04 Gerber Fmt 4.6, Leading zero omitted, Abs format (unit mm)*
G04 Created by KiCad (PCBNEW 5.1.8) date 2021-01-03 19:29:45*
%MOMM*%
%LPD*%
G01*
G04 APERTURE LIST*
%TA.AperFunction,ComponentPad*%
%ADD10O,1.600000X1.600000*%
%TD*%
%TA.AperFunction,ComponentPad*%
%ADD11R,1.600000X1.600000*%
%TD*%
%TA.AperFunction,ComponentPad*%
%ADD12C,2.340000*%
%TD*%
%TA.AperFunction,ComponentPad*%
%ADD13C,1.600000*%
%TD*%
%TA.AperFunction,ComponentPad*%
%ADD14O,2.000000X1.905000*%
%TD*%
%TA.AperFunction,ComponentPad*%
%ADD15R,2.000000X1.905000*%
%TD*%
%TA.AperFunction,ComponentPad*%
%ADD16O,2.000000X2.000000*%
%TD*%
%TA.AperFunction,ComponentPad*%
%ADD17C,2.000000*%
%TD*%
%TA.AperFunction,ComponentPad*%
%ADD18O,3.960000X1.980000*%
%TD*%
%TA.AperFunction,ComponentPad*%
%ADD19R,3.960000X1.980000*%
%TD*%
%TA.AperFunction,Conductor*%
%ADD20C,0.250000*%
%TD*%
%TA.AperFunction,Conductor*%
%ADD21C,3.000000*%
%TD*%
%TA.AperFunction,Conductor*%
%ADD22C,2.000000*%
%TD*%
%TA.AperFunction,Conductor*%
%ADD23C,0.254000*%
%TD*%
%TA.AperFunction,Conductor*%
%ADD24C,0.100000*%
%TD*%
G04 APERTURE END LIST*
D10*
%TO.P,U1,14*%
%TO.N,N/C*%
X135890000Y-40640000D03*
%TO.P,U1,7*%
%TO.N,Net-(R6-Pad2)*%
X128270000Y-55880000D03*
%TO.P,U1,13*%
%TO.N,N/C*%
X135890000Y-43180000D03*
%TO.P,U1,6*%
%TO.N,Net-(R7-Pad2)*%
X128270000Y-53340000D03*
%TO.P,U1,12*%
%TO.N,N/C*%
X135890000Y-45720000D03*
%TO.P,U1,5*%
%TO.N,Net-(R5-Pad1)*%
X128270000Y-50800000D03*
%TO.P,U1,11*%
%TO.N,V_IN-*%
X135890000Y-48260000D03*
%TO.P,U1,4*%
%TO.N,V_IN+*%
X128270000Y-48260000D03*
%TO.P,U1,10*%
%TO.N,N/C*%
X135890000Y-50800000D03*
%TO.P,U1,3*%
%TO.N,Net-(R2-Pad1)*%
X128270000Y-45720000D03*
%TO.P,U1,9*%
%TO.N,N/C*%
X135890000Y-53340000D03*
%TO.P,U1,2*%
%TO.N,Net-(R4-Pad2)*%
X128270000Y-43180000D03*
%TO.P,U1,8*%
%TO.N,N/C*%
X135890000Y-55880000D03*
D11*
%TO.P,U1,1*%
%TO.N,Net-(R3-Pad2)*%
X128270000Y-40640000D03*
%TD*%
D12*
%TO.P,RV2,1*%
%TO.N,Net-(C2-Pad1)*%
X102870000Y-64770000D03*
%TO.P,RV2,2*%
%TO.N,Net-(R5-Pad2)*%
X102870000Y-69770000D03*
%TO.P,RV2,3*%
%TO.N,V_IN-*%
X102870000Y-74770000D03*
%TD*%
%TO.P,RV1,1*%
%TO.N,Net-(C2-Pad1)*%
X102870000Y-45720000D03*
%TO.P,RV1,2*%
%TO.N,Net-(R2-Pad2)*%
X102870000Y-50720000D03*
%TO.P,RV1,3*%
%TO.N,V_IN-*%
X102870000Y-55720000D03*
%TD*%
D10*
%TO.P,R7,2*%
%TO.N,Net-(R7-Pad2)*%
X135890000Y-66040000D03*
D13*
%TO.P,R7,1*%
%TO.N,Out-*%
X148590000Y-66040000D03*
%TD*%
D10*
%TO.P,R6,2*%
%TO.N,Net-(R6-Pad2)*%
X130810000Y-27940000D03*
D13*
%TO.P,R6,1*%
%TO.N,Net-(C6-Pad2)*%
X143510000Y-27940000D03*
%TD*%
D10*
%TO.P,R5,2*%
%TO.N,Net-(R5-Pad2)*%
X106680000Y-69850000D03*
D13*
%TO.P,R5,1*%
%TO.N,Net-(R5-Pad1)*%
X119380000Y-69850000D03*
%TD*%
D10*
%TO.P,R4,2*%
%TO.N,Net-(R4-Pad2)*%
X130810000Y-33020000D03*
D13*
%TO.P,R4,1*%
%TO.N,Out+*%
X143510000Y-33020000D03*
%TD*%
D10*
%TO.P,R3,2*%
%TO.N,Net-(R3-Pad2)*%
X130810000Y-22860000D03*
D13*
%TO.P,R3,1*%
%TO.N,Net-(C6-Pad2)*%
X143510000Y-22860000D03*
%TD*%
D10*
%TO.P,R2,2*%
%TO.N,Net-(R2-Pad2)*%
X106680000Y-50800000D03*
D13*
%TO.P,R2,1*%
%TO.N,Net-(R2-Pad1)*%
X119380000Y-50800000D03*
%TD*%
D10*
%TO.P,R1,2*%
%TO.N,V_IN-*%
X142240000Y-58420000D03*
D13*
%TO.P,R1,1*%
%TO.N,Out-*%
X154940000Y-58420000D03*
%TD*%
D14*
%TO.P,Q1,3*%
%TO.N,Out+*%
X148590000Y-30480000D03*
%TO.P,Q1,2*%
%TO.N,V_IN+*%
X148590000Y-27940000D03*
D15*
%TO.P,Q1,1*%
%TO.N,Net-(C6-Pad2)*%
X148590000Y-25400000D03*
%TD*%
D16*
%TO.P,L2,2*%
%TO.N,Net-(C2-Pad1)*%
X101600000Y-39370000D03*
D17*
%TO.P,L2,1*%
%TO.N,V_IN+*%
X86360000Y-39370000D03*
%TD*%
D18*
%TO.P,J2,2*%
%TO.N,Out+*%
X163830000Y-53420000D03*
D19*
%TO.P,J2,1*%
%TO.N,Out-*%
X163830000Y-58420000D03*
%TD*%
D18*
%TO.P,J1,2*%
%TO.N,V_IN-*%
X92710000Y-32940000D03*
D19*
%TO.P,J1,1*%
%TO.N,V_IN+*%
X92710000Y-27940000D03*
%TD*%
D13*
%TO.P,C7,2*%
%TO.N,V_IN+*%
X111760000Y-27980000D03*
%TO.P,C7,1*%
%TO.N,V_IN-*%
X111760000Y-30480000D03*
%TD*%
%TO.P,C6,2*%
%TO.N,Net-(C6-Pad2)*%
X139700000Y-36870000D03*
%TO.P,C6,1*%
%TO.N,Out-*%
X139700000Y-39370000D03*
%TD*%
%TO.P,C5,2*%
%TO.N,Out+*%
X154940000Y-52110000D03*
%TO.P,C5,1*%
%TO.N,Out-*%
X154940000Y-54610000D03*
%TD*%
%TO.P,C4,2*%
%TO.N,V_IN+*%
X115570000Y-27980000D03*
%TO.P,C4,1*%
%TO.N,V_IN-*%
X115570000Y-30480000D03*
%TD*%
%TO.P,C3,2*%
%TO.N,V_IN-*%
X104140000Y-31740000D03*
D11*
%TO.P,C3,1*%
%TO.N,V_IN+*%
X104140000Y-27940000D03*
%TD*%
D13*
%TO.P,C2,2*%
%TO.N,V_IN-*%
X111750000Y-39370000D03*
D11*
%TO.P,C2,1*%
%TO.N,Net-(C2-Pad1)*%
X107950000Y-39370000D03*
%TD*%
D20*
%TO.N,V_IN-*%
X102940000Y-32940000D02*
X104140000Y-31740000D01*
X92710000Y-32940000D02*
X102940000Y-32940000D01*
X110500000Y-31740000D02*
X111760000Y-30480000D01*
X104140000Y-31740000D02*
X110500000Y-31740000D01*
X102870000Y-74770000D02*
X102870000Y-74930000D01*
X111750000Y-30490000D02*
X111760000Y-30480000D01*
X111750000Y-39370000D02*
X111750000Y-30490000D01*
D21*
X82550000Y-76200000D02*
X82550000Y-50800000D01*
X88900000Y-82550000D02*
X82550000Y-76200000D01*
X130810000Y-82550000D02*
X88900000Y-82550000D01*
X142240000Y-58420000D02*
X142240000Y-71120000D01*
X142240000Y-71120000D02*
X130810000Y-82550000D01*
X92710000Y-32940000D02*
X92710000Y-40640000D01*
D20*
X111760000Y-30480000D02*
X115570000Y-30480000D01*
X96945001Y-47415001D02*
X91440000Y-41910000D01*
X96945001Y-61057603D02*
X96945001Y-47415001D01*
X103587601Y-66265001D02*
X102152399Y-66265001D01*
X104365001Y-57215001D02*
X104365001Y-65487601D01*
X104365001Y-65487601D02*
X103587601Y-66265001D01*
X102870000Y-55720000D02*
X104365001Y-57215001D01*
D21*
X91440000Y-41910000D02*
X92710000Y-40640000D01*
D20*
X102152399Y-66265001D02*
X96945001Y-61057603D01*
D21*
X82550000Y-50800000D02*
X91440000Y-41910000D01*
D20*
X142240000Y-54610000D02*
X142240000Y-58420000D01*
X135890000Y-48260000D02*
X142240000Y-54610000D01*
%TO.N,Net-(C2-Pad1)*%
X101600000Y-44450000D02*
X102870000Y-45720000D01*
X101600000Y-39370000D02*
X101600000Y-44450000D01*
X102870000Y-64770000D02*
X99060000Y-60960000D01*
X99060000Y-49530000D02*
X102870000Y-45720000D01*
X99060000Y-60960000D02*
X99060000Y-49530000D01*
X101600000Y-39370000D02*
X107950000Y-39370000D01*
D21*
%TO.N,V_IN+*%
X92710000Y-27940000D02*
X92710000Y-25400000D01*
X92710000Y-25400000D02*
X99060000Y-19050000D01*
X99060000Y-19050000D02*
X151130000Y-19050000D01*
X151130000Y-19050000D02*
X153670000Y-21590000D01*
X153670000Y-21590000D02*
X153670000Y-26670000D01*
D22*
X152400000Y-27940000D02*
X148590000Y-27940000D01*
D21*
X153670000Y-26670000D02*
X152400000Y-27940000D01*
D20*
X92710000Y-27940000D02*
X104140000Y-27940000D01*
X111720000Y-27940000D02*
X111760000Y-27980000D01*
X104140000Y-27940000D02*
X111720000Y-27940000D01*
X86360000Y-34290000D02*
X86360000Y-39370000D01*
X92710000Y-27940000D02*
X86360000Y-34290000D01*
X111760000Y-27980000D02*
X115570000Y-27980000D01*
X116695001Y-36685001D02*
X128270000Y-48260000D01*
X115570000Y-27980000D02*
X116695001Y-29105001D01*
X116695001Y-29105001D02*
X116695001Y-36685001D01*
D21*
%TO.N,Out+*%
X148590000Y-38180000D02*
X163830000Y-53420000D01*
D22*
X148590000Y-30480000D02*
X148590000Y-38180000D01*
D20*
X156250000Y-53420000D02*
X154940000Y-52110000D01*
X163830000Y-53420000D02*
X156250000Y-53420000D01*
%TO.N,Net-(C6-Pad2)*%
X139700000Y-31750000D02*
X143510000Y-27940000D01*
X139700000Y-36870000D02*
X139700000Y-31750000D01*
D21*
%TO.N,Out-*%
X154940000Y-58420000D02*
X163830000Y-58420000D01*
D20*
X154940000Y-54610000D02*
X154940000Y-58420000D01*
X154940000Y-59690000D02*
X148590000Y-66040000D01*
X154940000Y-58420000D02*
X154940000Y-59690000D01*
X139700000Y-39370000D02*
X154940000Y-54610000D01*
%TO.N,Net-(R2-Pad1)*%
X129395001Y-48800001D02*
X129395001Y-46845001D01*
X128810001Y-49385001D02*
X129395001Y-48800001D01*
X129395001Y-46845001D02*
X128270000Y-45720000D01*
X120794999Y-49385001D02*
X128810001Y-49385001D01*
X119380000Y-50800000D02*
X120794999Y-49385001D01*
%TO.N,Net-(R3-Pad2)*%
X128270000Y-25400000D02*
X128270000Y-40640000D01*
X130810000Y-22860000D02*
X128270000Y-25400000D01*
%TO.N,Net-(R4-Pad2)*%
X130810000Y-40640000D02*
X128270000Y-43180000D01*
X130810000Y-33020000D02*
X130810000Y-40640000D01*
%TO.N,Net-(R5-Pad2)*%
X102950000Y-69850000D02*
X102870000Y-69770000D01*
X106680000Y-69850000D02*
X102950000Y-69850000D01*
%TO.N,Net-(R5-Pad1)*%
X119380000Y-59690000D02*
X128270000Y-50800000D01*
X119380000Y-69850000D02*
X119380000Y-59690000D01*
%TO.N,Net-(R6-Pad2)*%
X131935001Y-52214999D02*
X128270000Y-55880000D01*
X131935001Y-29065001D02*
X131935001Y-52214999D01*
X130810000Y-27940000D02*
X131935001Y-29065001D01*
%TO.N,Net-(R7-Pad2)*%
X127144999Y-57294999D02*
X135890000Y-66040000D01*
X127144999Y-54465001D02*
X127144999Y-57294999D01*
X128270000Y-53340000D02*
X127144999Y-54465001D01*
%TD*%
D23*
%TO.N,V_IN-*%
X175133000Y-86233000D02*
X77597000Y-86233000D01*
X77597000Y-76026602D01*
X101793003Y-76026602D01*
X101909275Y-76308389D01*
X102227860Y-76466257D01*
X102571122Y-76558938D01*
X102925869Y-76582873D01*
X103278470Y-76537139D01*
X103615373Y-76423495D01*
X103830725Y-76308389D01*
X103946997Y-76026602D01*
X102870000Y-74949605D01*
X101793003Y-76026602D01*
X77597000Y-76026602D01*
X77597000Y-74825869D01*
X101057127Y-74825869D01*
X101102861Y-75178470D01*
X101216505Y-75515373D01*
X101331611Y-75730725D01*
X101613398Y-75846997D01*
X102690395Y-74770000D01*
X103049605Y-74770000D01*
X104126602Y-75846997D01*
X104408389Y-75730725D01*
X104566257Y-75412140D01*
X104658938Y-75068878D01*
X104682873Y-74714131D01*
X104637139Y-74361530D01*
X104523495Y-74024627D01*
X104408389Y-73809275D01*
X104126602Y-73693003D01*
X103049605Y-74770000D01*
X102690395Y-74770000D01*
X101613398Y-73693003D01*
X101331611Y-73809275D01*
X101173743Y-74127860D01*
X101081062Y-74471122D01*
X101057127Y-74825869D01*
X77597000Y-74825869D01*
X77597000Y-69338115D01*
X88485000Y-69338115D01*
X88485000Y-70201885D01*
X88653513Y-71049057D01*
X88984064Y-71847076D01*
X89463948Y-72565274D01*
X90074726Y-73176052D01*
X90792924Y-73655936D01*
X91590943Y-73986487D01*
X92438115Y-74155000D01*
X93301885Y-74155000D01*
X94149057Y-73986487D01*
X94947076Y-73655936D01*
X95160399Y-73513398D01*
X101793003Y-73513398D01*
X102870000Y-74590395D01*
X103946997Y-73513398D01*
X103830725Y-73231611D01*
X103512140Y-73073743D01*
X103168878Y-72981062D01*
X102814131Y-72957127D01*
X102461530Y-73002861D01*
X102124627Y-73116505D01*
X101909275Y-73231611D01*
X101793003Y-73513398D01*
X95160399Y-73513398D01*
X95665274Y-73176052D01*
X96276052Y-72565274D01*
X96755936Y-71847076D01*
X97086487Y-71049057D01*
X97255000Y-70201885D01*
X97255000Y-69592223D01*
X101065000Y-69592223D01*
X101065000Y-69947777D01*
X101134365Y-70296499D01*
X101270429Y-70624988D01*
X101467965Y-70920621D01*
X101719379Y-71172035D01*
X102015012Y-71369571D01*
X102343501Y-71505635D01*
X102692223Y-71575000D01*
X103047777Y-71575000D01*
X103396499Y-71505635D01*
X103724988Y-71369571D01*
X104020621Y-71172035D01*
X104272035Y-70920621D01*
X104469571Y-70624988D01*
X104475779Y-70610000D01*
X105461957Y-70610000D01*
X105565363Y-70764759D01*
X105765241Y-70964637D01*
X106000273Y-71121680D01*
X106261426Y-71229853D01*
X106538665Y-71285000D01*
X106821335Y-71285000D01*
X107098574Y-71229853D01*
X107359727Y-71121680D01*
X107594759Y-70964637D01*
X107794637Y-70764759D01*
X107951680Y-70529727D01*
X108059853Y-70268574D01*
X108115000Y-69991335D01*
X108115000Y-69708665D01*
X108059853Y-69431426D01*
X107951680Y-69170273D01*
X107794637Y-68935241D01*
X107594759Y-68735363D01*
X107359727Y-68578320D01*
X107098574Y-68470147D01*
X106821335Y-68415000D01*
X106538665Y-68415000D01*
X106261426Y-68470147D01*
X106000273Y-68578320D01*
X105765241Y-68735363D01*
X105565363Y-68935241D01*
X105461957Y-69090000D01*
X104542053Y-69090000D01*
X104469571Y-68915012D01*
X104272035Y-68619379D01*
X104020621Y-68367965D01*
X103724988Y-68170429D01*
X103396499Y-68034365D01*
X103047777Y-67965000D01*
X102692223Y-67965000D01*
X102343501Y-68034365D01*
X102015012Y-68170429D01*
X101719379Y-68367965D01*
X101467965Y-68619379D01*
X101270429Y-68915012D01*
X101134365Y-69243501D01*
X101065000Y-69592223D01*
X97255000Y-69592223D01*
X97255000Y-69338115D01*
X97086487Y-68490943D01*
X96755936Y-67692924D01*
X96276052Y-66974726D01*
X95665274Y-66363948D01*
X94947076Y-65884064D01*
X94149057Y-65553513D01*
X93301885Y-65385000D01*
X92438115Y-65385000D01*
X91590943Y-65553513D01*
X90792924Y-65884064D01*
X90074726Y-66363948D01*
X89463948Y-66974726D01*
X88984064Y-67692924D01*
X88653513Y-68490943D01*
X88485000Y-69338115D01*
X77597000Y-69338115D01*
X77597000Y-50288115D01*
X88485000Y-50288115D01*
X88485000Y-51151885D01*
X88653513Y-51999057D01*
X88984064Y-52797076D01*
X89463948Y-53515274D01*
X90074726Y-54126052D01*
X90792924Y-54605936D01*
X91590943Y-54936487D01*
X92438115Y-55105000D01*
X93301885Y-55105000D01*
X94149057Y-54936487D01*
X94947076Y-54605936D01*
X95665274Y-54126052D01*
X96276052Y-53515274D01*
X96755936Y-52797076D01*
X97086487Y-51999057D01*
X97255000Y-51151885D01*
X97255000Y-50288115D01*
X97104202Y-49530000D01*
X98296324Y-49530000D01*
X98300001Y-49567332D01*
X98300000Y-60922678D01*
X98296324Y-60960000D01*
X98300000Y-60997322D01*
X98300000Y-60997332D01*
X98310997Y-61108985D01*
X98354454Y-61252246D01*
X98425026Y-61384276D01*
X98464871Y-61432826D01*
X98519999Y-61500001D01*
X98549003Y-61523804D01*
X101173710Y-64148512D01*
X101134365Y-64243501D01*
X101065000Y-64592223D01*
X101065000Y-64947777D01*
X101134365Y-65296499D01*
X101270429Y-65624988D01*
X101467965Y-65920621D01*
X101719379Y-66172035D01*
X102015012Y-66369571D01*
X102343501Y-66505635D01*
X102692223Y-66575000D01*
X103047777Y-66575000D01*
X103396499Y-66505635D01*
X103724988Y-66369571D01*
X104020621Y-66172035D01*
X104272035Y-65920621D01*
X104469571Y-65624988D01*
X104605635Y-65296499D01*
X104675000Y-64947777D01*
X104675000Y-64592223D01*
X104605635Y-64243501D01*
X104469571Y-63915012D01*
X104272035Y-63619379D01*
X104020621Y-63367965D01*
X103724988Y-63170429D01*
X103396499Y-63034365D01*
X103047777Y-62965000D01*
X102692223Y-62965000D01*
X102343501Y-63034365D01*
X102248512Y-63073710D01*
X99820000Y-60645199D01*
X99820000Y-56976602D01*
X101793003Y-56976602D01*
X101909275Y-57258389D01*
X102227860Y-57416257D01*
X102571122Y-57508938D01*
X102925869Y-57532873D01*
X103278470Y-57487139D01*
X103615373Y-57373495D01*
X103830725Y-57258389D01*
X103946997Y-56976602D01*
X102870000Y-55899605D01*
X101793003Y-56976602D01*
X99820000Y-56976602D01*
X99820000Y-55775869D01*
X101057127Y-55775869D01*
X101102861Y-56128470D01*
X101216505Y-56465373D01*
X101331611Y-56680725D01*
X101613398Y-56796997D01*
X102690395Y-55720000D01*
X103049605Y-55720000D01*
X104126602Y-56796997D01*
X104408389Y-56680725D01*
X104566257Y-56362140D01*
X104658938Y-56018878D01*
X104682873Y-55664131D01*
X104637139Y-55311530D01*
X104523495Y-54974627D01*
X104408389Y-54759275D01*
X104126602Y-54643003D01*
X103049605Y-55720000D01*
X102690395Y-55720000D01*
X101613398Y-54643003D01*
X101331611Y-54759275D01*
X101173743Y-55077860D01*
X101081062Y-55421122D01*
X101057127Y-55775869D01*
X99820000Y-55775869D01*
X99820000Y-54463398D01*
X101793003Y-54463398D01*
X102870000Y-55540395D01*
X103946997Y-54463398D01*
X103830725Y-54181611D01*
X103512140Y-54023743D01*
X103168878Y-53931062D01*
X102814131Y-53907127D01*
X102461530Y-53952861D01*
X102124627Y-54066505D01*
X101909275Y-54181611D01*
X101793003Y-54463398D01*
X99820000Y-54463398D01*
X99820000Y-50542223D01*
X101065000Y-50542223D01*
X101065000Y-50897777D01*
X101134365Y-51246499D01*
X101270429Y-51574988D01*
X101467965Y-51870621D01*
X101719379Y-52122035D01*
X102015012Y-52319571D01*
X102343501Y-52455635D01*
X102692223Y-52525000D01*
X103047777Y-52525000D01*
X103396499Y-52455635D01*
X103724988Y-52319571D01*
X104020621Y-52122035D01*
X104272035Y-51870621D01*
X104469571Y-51574988D01*
X104605635Y-51246499D01*
X104675000Y-50897777D01*
X104675000Y-50658665D01*
X105245000Y-50658665D01*
X105245000Y-50941335D01*
X105300147Y-51218574D01*
X105408320Y-51479727D01*
X105565363Y-51714759D01*
X105765241Y-51914637D01*
X106000273Y-52071680D01*
X106261426Y-52179853D01*
X106538665Y-52235000D01*
X106821335Y-52235000D01*
X107098574Y-52179853D01*
X107359727Y-52071680D01*
X107594759Y-51914637D01*
X107794637Y-51714759D01*
X107951680Y-51479727D01*
X108059853Y-51218574D01*
X108115000Y-50941335D01*
X108115000Y-50658665D01*
X108059853Y-50381426D01*
X107951680Y-50120273D01*
X107794637Y-49885241D01*
X107594759Y-49685363D01*
X107359727Y-49528320D01*
X107098574Y-49420147D01*
X106821335Y-49365000D01*
X106538665Y-49365000D01*
X106261426Y-49420147D01*
X106000273Y-49528320D01*
X105765241Y-49685363D01*
X105565363Y-49885241D01*
X105408320Y-50120273D01*
X105300147Y-50381426D01*
X105245000Y-50658665D01*
X104675000Y-50658665D01*
X104675000Y-50542223D01*
X104605635Y-50193501D01*
X104469571Y-49865012D01*
X104272035Y-49569379D01*
X104020621Y-49317965D01*
X103724988Y-49120429D01*
X103396499Y-48984365D01*
X103047777Y-48915000D01*
X102692223Y-48915000D01*
X102343501Y-48984365D01*
X102015012Y-49120429D01*
X101719379Y-49317965D01*
X101467965Y-49569379D01*
X101270429Y-49865012D01*
X101134365Y-50193501D01*
X101065000Y-50542223D01*
X99820000Y-50542223D01*
X99820000Y-49844801D01*
X102248512Y-47416290D01*
X102343501Y-47455635D01*
X102692223Y-47525000D01*
X103047777Y-47525000D01*
X103396499Y-47455635D01*
X103724988Y-47319571D01*
X104020621Y-47122035D01*
X104272035Y-46870621D01*
X104469571Y-46574988D01*
X104605635Y-46246499D01*
X104675000Y-45897777D01*
X104675000Y-45542223D01*
X104605635Y-45193501D01*
X104469571Y-44865012D01*
X104272035Y-44569379D01*
X104020621Y-44317965D01*
X103724988Y-44120429D01*
X103396499Y-43984365D01*
X103047777Y-43915000D01*
X102692223Y-43915000D01*
X102360000Y-43981083D01*
X102360000Y-40824909D01*
X102374463Y-40818918D01*
X102642252Y-40639987D01*
X102869987Y-40412252D01*
X103048918Y-40144463D01*
X103054909Y-40130000D01*
X106511928Y-40130000D01*
X106511928Y-40170000D01*
X106524188Y-40294482D01*
X106560498Y-40414180D01*
X106619463Y-40524494D01*
X106698815Y-40621185D01*
X106795506Y-40700537D01*
X106905820Y-40759502D01*
X107025518Y-40795812D01*
X107150000Y-40808072D01*
X108750000Y-40808072D01*
X108874482Y-40795812D01*
X108994180Y-40759502D01*
X109104494Y-40700537D01*
X109201185Y-40621185D01*
X109280537Y-40524494D01*
X109339502Y-40414180D01*
X109355117Y-40362702D01*
X110936903Y-40362702D01*
X111008486Y-40606671D01*
X111263996Y-40727571D01*
X111538184Y-40796300D01*
X111820512Y-40810217D01*
X112100130Y-40768787D01*
X112366292Y-40673603D01*
X112491514Y-40606671D01*
X112563097Y-40362702D01*
X111750000Y-39549605D01*
X110936903Y-40362702D01*
X109355117Y-40362702D01*
X109375812Y-40294482D01*
X109388072Y-40170000D01*
X109388072Y-39440512D01*
X110309783Y-39440512D01*
X110351213Y-39720130D01*
X110446397Y-39986292D01*
X110513329Y-40111514D01*
X110757298Y-40183097D01*
X111570395Y-39370000D01*
X111929605Y-39370000D01*
X112742702Y-40183097D01*
X112986671Y-40111514D01*
X113107571Y-39856004D01*
X113176300Y-39581816D01*
X113190217Y-39299488D01*
X113148787Y-39019870D01*
X113053603Y-38753708D01*
X112986671Y-38628486D01*
X112742702Y-38556903D01*
X111929605Y-39370000D01*
X111570395Y-39370000D01*
X110757298Y-38556903D01*
X110513329Y-38628486D01*
X110392429Y-38883996D01*
X110323700Y-39158184D01*
X110309783Y-39440512D01*
X109388072Y-39440512D01*
X109388072Y-38570000D01*
X109375812Y-38445518D01*
X109355118Y-38377298D01*
X110936903Y-38377298D01*
X111750000Y-39190395D01*
X112563097Y-38377298D01*
X112491514Y-38133329D01*
X112236004Y-38012429D01*
X111961816Y-37943700D01*
X111679488Y-37929783D01*
X111399870Y-37971213D01*
X111133708Y-38066397D01*
X111008486Y-38133329D01*
X110936903Y-38377298D01*
X109355118Y-38377298D01*
X109339502Y-38325820D01*
X109280537Y-38215506D01*
X109201185Y-38118815D01*
X109104494Y-38039463D01*
X108994180Y-37980498D01*
X108874482Y-37944188D01*
X108750000Y-37931928D01*
X107150000Y-37931928D01*
X107025518Y-37944188D01*
X106905820Y-37980498D01*
X106795506Y-38039463D01*
X106698815Y-38118815D01*
X106619463Y-38215506D01*
X106560498Y-38325820D01*
X106524188Y-38445518D01*
X106511928Y-38570000D01*
X106511928Y-38610000D01*
X103054909Y-38610000D01*
X103048918Y-38595537D01*
X102869987Y-38327748D01*
X102642252Y-38100013D01*
X102374463Y-37921082D01*
X102076912Y-37797832D01*
X101761033Y-37735000D01*
X101438967Y-37735000D01*
X101123088Y-37797832D01*
X100825537Y-37921082D01*
X100557748Y-38100013D01*
X100330013Y-38327748D01*
X100151082Y-38595537D01*
X100027832Y-38893088D01*
X99965000Y-39208967D01*
X99965000Y-39531033D01*
X100027832Y-39846912D01*
X100151082Y-40144463D01*
X100330013Y-40412252D01*
X100557748Y-40639987D01*
X100825537Y-40818918D01*
X100840000Y-40824909D01*
X100840001Y-44412668D01*
X100836324Y-44450000D01*
X100840001Y-44487333D01*
X100850998Y-44598986D01*
X100855856Y-44615000D01*
X100894454Y-44742246D01*
X100965026Y-44874276D01*
X101032362Y-44956324D01*
X101060000Y-44990001D01*
X101088998Y-45013799D01*
X101173711Y-45098512D01*
X101134365Y-45193501D01*
X101065000Y-45542223D01*
X101065000Y-45897777D01*
X101134365Y-46246499D01*
X101173710Y-46341488D01*
X98548998Y-48966201D01*
X98520000Y-48989999D01*
X98496202Y-49018997D01*
X98496201Y-49018998D01*
X98425026Y-49105724D01*
X98354454Y-49237754D01*
X98332235Y-49311004D01*
X98310998Y-49381014D01*
X98300001Y-49492667D01*
X98296324Y-49530000D01*
X97104202Y-49530000D01*
X97086487Y-49440943D01*
X96755936Y-48642924D01*
X96276052Y-47924726D01*
X95665274Y-47313948D01*
X94947076Y-46834064D01*
X94149057Y-46503513D01*
X93301885Y-46335000D01*
X92438115Y-46335000D01*
X91590943Y-46503513D01*
X90792924Y-46834064D01*
X90074726Y-47313948D01*
X89463948Y-47924726D01*
X88984064Y-48642924D01*
X88653513Y-49440943D01*
X88485000Y-50288115D01*
X77597000Y-50288115D01*
X77597000Y-39208967D01*
X84725000Y-39208967D01*
X84725000Y-39531033D01*
X84787832Y-39846912D01*
X84911082Y-40144463D01*
X85090013Y-40412252D01*
X85317748Y-40639987D01*
X85585537Y-40818918D01*
X85883088Y-40942168D01*
X86198967Y-41005000D01*
X86521033Y-41005000D01*
X86836912Y-40942168D01*
X87134463Y-40818918D01*
X87402252Y-40639987D01*
X87629987Y-40412252D01*
X87808918Y-40144463D01*
X87932168Y-39846912D01*
X87995000Y-39531033D01*
X87995000Y-39208967D01*
X87932168Y-38893088D01*
X87808918Y-38595537D01*
X87629987Y-38327748D01*
X87402252Y-38100013D01*
X87134463Y-37921082D01*
X87120000Y-37915091D01*
X87120000Y-34604801D01*
X88405936Y-33318865D01*
X90139782Y-33318865D01*
X90170095Y-33444528D01*
X90298304Y-33737205D01*
X90481148Y-33999246D01*
X90711601Y-34220581D01*
X90980806Y-34392704D01*
X91278418Y-34509000D01*
X91593000Y-34565000D01*
X92583000Y-34565000D01*
X92583000Y-33067000D01*
X92837000Y-33067000D01*
X92837000Y-34565000D01*
X93827000Y-34565000D01*
X94141582Y-34509000D01*
X94439194Y-34392704D01*
X94708399Y-34220581D01*
X94938852Y-33999246D01*
X95121696Y-33737205D01*
X95249905Y-33444528D01*
X95280218Y-33318865D01*
X95160740Y-33067000D01*
X92837000Y-33067000D01*
X92583000Y-33067000D01*
X90259260Y-33067000D01*
X90139782Y-33318865D01*
X88405936Y-33318865D01*
X89163666Y-32561135D01*
X90139782Y-32561135D01*
X90259260Y-32813000D01*
X92583000Y-32813000D01*
X92583000Y-31315000D01*
X92837000Y-31315000D01*
X92837000Y-32813000D01*
X95160740Y-32813000D01*
X95198831Y-32732702D01*
X103326903Y-32732702D01*
X103398486Y-32976671D01*
X103653996Y-33097571D01*
X103928184Y-33166300D01*
X104210512Y-33180217D01*
X104490130Y-33138787D01*
X104756292Y-33043603D01*
X104881514Y-32976671D01*
X104953097Y-32732702D01*
X104140000Y-31919605D01*
X103326903Y-32732702D01*
X95198831Y-32732702D01*
X95280218Y-32561135D01*
X95249905Y-32435472D01*
X95121696Y-32142795D01*
X94938852Y-31880754D01*
X94865717Y-31810512D01*
X102699783Y-31810512D01*
X102741213Y-32090130D01*
X102836397Y-32356292D01*
X102903329Y-32481514D01*
X103147298Y-32553097D01*
X103960395Y-31740000D01*
X104319605Y-31740000D01*
X105132702Y-32553097D01*
X105376671Y-32481514D01*
X105497571Y-32226004D01*
X105566300Y-31951816D01*
X105580217Y-31669488D01*
X105551060Y-31472702D01*
X110946903Y-31472702D01*
X111018486Y-31716671D01*
X111273996Y-31837571D01*
X111548184Y-31906300D01*
X111830512Y-31920217D01*
X112110130Y-31878787D01*
X112376292Y-31783603D01*
X112501514Y-31716671D01*
X112573097Y-31472702D01*
X111760000Y-30659605D01*
X110946903Y-31472702D01*
X105551060Y-31472702D01*
X105538787Y-31389870D01*
X105443603Y-31123708D01*
X105376671Y-30998486D01*
X105132702Y-30926903D01*
X104319605Y-31740000D01*
X103960395Y-31740000D01*
X103147298Y-30926903D01*
X102903329Y-30998486D01*
X102782429Y-31253996D01*
X102713700Y-31528184D01*
X102699783Y-31810512D01*
X94865717Y-31810512D01*
X94708399Y-31659419D01*
X94439194Y-31487296D01*
X94141582Y-31371000D01*
X93827000Y-31315000D01*
X92837000Y-31315000D01*
X92583000Y-31315000D01*
X91593000Y-31315000D01*
X91278418Y-31371000D01*
X90980806Y-31487296D01*
X90711601Y-31659419D01*
X90481148Y-31880754D01*
X90298304Y-32142795D01*
X90170095Y-32435472D01*
X90139782Y-32561135D01*
X89163666Y-32561135D01*
X90977503Y-30747298D01*
X103326903Y-30747298D01*
X104140000Y-31560395D01*
X104953097Y-30747298D01*
X104895358Y-30550512D01*
X110319783Y-30550512D01*
X110361213Y-30830130D01*
X110456397Y-31096292D01*
X110523329Y-31221514D01*
X110767298Y-31293097D01*
X111580395Y-30480000D01*
X111939605Y-30480000D01*
X112752702Y-31293097D01*
X112996671Y-31221514D01*
X113117571Y-30966004D01*
X113186300Y-30691816D01*
X113193265Y-30550512D01*
X114129783Y-30550512D01*
X114171213Y-30830130D01*
X114266397Y-31096292D01*
X114333329Y-31221514D01*
X114577298Y-31293097D01*
X115390395Y-30480000D01*
X114577298Y-29666903D01*
X114333329Y-29738486D01*
X114212429Y-29993996D01*
X114143700Y-30268184D01*
X114129783Y-30550512D01*
X113193265Y-30550512D01*
X113200217Y-30409488D01*
X113158787Y-30129870D01*
X113063603Y-29863708D01*
X112996671Y-29738486D01*
X112752702Y-29666903D01*
X111939605Y-30480000D01*
X111580395Y-30480000D01*
X110767298Y-29666903D01*
X110523329Y-29738486D01*
X110402429Y-29993996D01*
X110333700Y-30268184D01*
X110319783Y-30550512D01*
X104895358Y-30550512D01*
X104881514Y-30503329D01*
X104626004Y-30382429D01*
X104351816Y-30313700D01*
X104069488Y-30299783D01*
X103789870Y-30341213D01*
X103523708Y-30436397D01*
X103398486Y-30503329D01*
X103326903Y-30747298D01*
X90977503Y-30747298D01*
X91832816Y-29891986D01*
X91889018Y-29922026D01*
X92291467Y-30044108D01*
X92710000Y-30085330D01*
X93128532Y-30044108D01*
X93530981Y-29922026D01*
X93901881Y-29723777D01*
X94091608Y-29568072D01*
X94690000Y-29568072D01*
X94814482Y-29555812D01*
X94934180Y-29519502D01*
X95044494Y-29460537D01*
X95141185Y-29381185D01*
X95220537Y-29284494D01*
X95279502Y-29174180D01*
X95315812Y-29054482D01*
X95328072Y-28930000D01*
X95328072Y-28700000D01*
X102701928Y-28700000D01*
X102701928Y-28740000D01*
X102714188Y-28864482D01*
X102750498Y-28984180D01*
X102809463Y-29094494D01*
X102888815Y-29191185D01*
X102985506Y-29270537D01*
X103095820Y-29329502D01*
X103215518Y-29365812D01*
X103340000Y-29378072D01*
X104940000Y-29378072D01*
X105064482Y-29365812D01*
X105184180Y-29329502D01*
X105294494Y-29270537D01*
X105391185Y-29191185D01*
X105470537Y-29094494D01*
X105529502Y-28984180D01*
X105565812Y-28864482D01*
X105578072Y-28740000D01*
X105578072Y-28700000D01*
X110515229Y-28700000D01*
X110645363Y-28894759D01*
X110845241Y-29094637D01*
X111045869Y-29228692D01*
X111018486Y-29243329D01*
X110946903Y-29487298D01*
X111760000Y-30300395D01*
X112573097Y-29487298D01*
X112501514Y-29243329D01*
X112472659Y-29229676D01*
X112674759Y-29094637D01*
X112874637Y-28894759D01*
X112978043Y-28740000D01*
X114351957Y-28740000D01*
X114455363Y-28894759D01*
X114655241Y-29094637D01*
X114855869Y-29228692D01*
X114828486Y-29243329D01*
X114756903Y-29487298D01*
X115570000Y-30300395D01*
X115584143Y-30286253D01*
X115763748Y-30465858D01*
X115749605Y-30480000D01*
X115763748Y-30494143D01*
X115584143Y-30673748D01*
X115570000Y-30659605D01*
X114756903Y-31472702D01*
X114828486Y-31716671D01*
X115083996Y-31837571D01*
X115358184Y-31906300D01*
X115640512Y-31920217D01*
X115920130Y-31878787D01*
X115935001Y-31873469D01*
X115935002Y-36647669D01*
X115931325Y-36685001D01*
X115945999Y-36833986D01*
X115989455Y-36977247D01*
X116060027Y-37109277D01*
X116103499Y-37162247D01*
X116155001Y-37225002D01*
X116183999Y-37248800D01*
X126871312Y-47936114D01*
X126835000Y-48118665D01*
X126835000Y-48401335D01*
X126879491Y-48625001D01*
X120832324Y-48625001D01*
X120794999Y-48621325D01*
X120757674Y-48625001D01*
X120757666Y-48625001D01*
X120646013Y-48635998D01*
X120502752Y-48679455D01*
X120370723Y-48750027D01*
X120254998Y-48845000D01*
X120231200Y-48873998D01*
X119703886Y-49401312D01*
X119521335Y-49365000D01*
X119238665Y-49365000D01*
X118961426Y-49420147D01*
X118700273Y-49528320D01*
X118465241Y-49685363D01*
X118265363Y-49885241D01*
X118108320Y-50120273D01*
X118000147Y-50381426D01*
X117945000Y-50658665D01*
X117945000Y-50941335D01*
X118000147Y-51218574D01*
X118108320Y-51479727D01*
X118265363Y-51714759D01*
X118465241Y-51914637D01*
X118700273Y-52071680D01*
X118961426Y-52179853D01*
X119238665Y-52235000D01*
X119521335Y-52235000D01*
X119798574Y-52179853D01*
X120059727Y-52071680D01*
X120294759Y-51914637D01*
X120494637Y-51714759D01*
X120651680Y-51479727D01*
X120759853Y-51218574D01*
X120815000Y-50941335D01*
X120815000Y-50658665D01*
X120778688Y-50476114D01*
X121109801Y-50145001D01*
X126988077Y-50145001D01*
X126890147Y-50381426D01*
X126835000Y-50658665D01*
X126835000Y-50941335D01*
X126871312Y-51123886D01*
X118868998Y-59126201D01*
X118840000Y-59149999D01*
X118816202Y-59178997D01*
X118816201Y-59178998D01*
X118745026Y-59265724D01*
X118674454Y-59397754D01*
X118644180Y-59497558D01*
X118632933Y-59534637D01*
X118630998Y-59541015D01*
X118616324Y-59690000D01*
X118620001Y-59727332D01*
X118620000Y-68631956D01*
X118465241Y-68735363D01*
X118265363Y-68935241D01*
X118108320Y-69170273D01*
X118000147Y-69431426D01*
X117945000Y-69708665D01*
X117945000Y-69991335D01*
X118000147Y-70268574D01*
X118108320Y-70529727D01*
X118265363Y-70764759D01*
X118465241Y-70964637D01*
X118700273Y-71121680D01*
X118961426Y-71229853D01*
X119238665Y-71285000D01*
X119521335Y-71285000D01*
X119798574Y-71229853D01*
X120059727Y-71121680D01*
X120294759Y-70964637D01*
X120494637Y-70764759D01*
X120651680Y-70529727D01*
X120759853Y-70268574D01*
X120815000Y-69991335D01*
X120815000Y-69708665D01*
X120759853Y-69431426D01*
X120651680Y-69170273D01*
X120494637Y-68935241D01*
X120294759Y-68735363D01*
X120140000Y-68631957D01*
X120140000Y-60004801D01*
X126835000Y-53309802D01*
X126835000Y-53481335D01*
X126871312Y-53663887D01*
X126634001Y-53901197D01*
X126604998Y-53925000D01*
X126576274Y-53960001D01*
X126510025Y-54040725D01*
X126439454Y-54172754D01*
X126439453Y-54172755D01*
X126395996Y-54316016D01*
X126384999Y-54427669D01*
X126384999Y-54427679D01*
X126381323Y-54465001D01*
X126384999Y-54502324D01*
X126385000Y-57257667D01*
X126381323Y-57294999D01*
X126385000Y-57332332D01*
X126395997Y-57443985D01*
X126409087Y-57487139D01*
X126439453Y-57587245D01*
X126510025Y-57719275D01*
X126563986Y-57785026D01*
X126604999Y-57835000D01*
X126633997Y-57858798D01*
X134491312Y-65716114D01*
X134455000Y-65898665D01*
X134455000Y-66181335D01*
X134510147Y-66458574D01*
X134618320Y-66719727D01*
X134775363Y-66954759D01*
X134975241Y-67154637D01*
X135210273Y-67311680D01*
X135471426Y-67419853D01*
X135748665Y-67475000D01*
X136031335Y-67475000D01*
X136308574Y-67419853D01*
X136569727Y-67311680D01*
X136804759Y-67154637D01*
X137004637Y-66954759D01*
X137161680Y-66719727D01*
X137269853Y-66458574D01*
X137325000Y-66181335D01*
X137325000Y-65898665D01*
X137269853Y-65621426D01*
X137161680Y-65360273D01*
X137004637Y-65125241D01*
X136804759Y-64925363D01*
X136569727Y-64768320D01*
X136308574Y-64660147D01*
X136031335Y-64605000D01*
X135748665Y-64605000D01*
X135566114Y-64641312D01*
X129693841Y-58769039D01*
X140848096Y-58769039D01*
X140888754Y-58903087D01*
X141008963Y-59157420D01*
X141176481Y-59383414D01*
X141384869Y-59572385D01*
X141626119Y-59717070D01*
X141890960Y-59811909D01*
X142113000Y-59690624D01*
X142113000Y-58547000D01*
X142367000Y-58547000D01*
X142367000Y-59690624D01*
X142589040Y-59811909D01*
X142853881Y-59717070D01*
X143095131Y-59572385D01*
X143303519Y-59383414D01*
X143471037Y-59157420D01*
X143591246Y-58903087D01*
X143631904Y-58769039D01*
X143509915Y-58547000D01*
X142367000Y-58547000D01*
X142113000Y-58547000D01*
X140970085Y-58547000D01*
X140848096Y-58769039D01*
X129693841Y-58769039D01*
X128995763Y-58070961D01*
X140848096Y-58070961D01*
X140970085Y-58293000D01*
X142113000Y-58293000D01*
X142113000Y-57149376D01*
X142367000Y-57149376D01*
X142367000Y-58293000D01*
X143509915Y-58293000D01*
X143631904Y-58070961D01*
X143591246Y-57936913D01*
X143471037Y-57682580D01*
X143303519Y-57456586D01*
X143095131Y-57267615D01*
X142853881Y-57122930D01*
X142589040Y-57028091D01*
X142367000Y-57149376D01*
X142113000Y-57149376D01*
X141890960Y-57028091D01*
X141626119Y-57122930D01*
X141384869Y-57267615D01*
X141176481Y-57456586D01*
X141008963Y-57682580D01*
X140888754Y-57936913D01*
X140848096Y-58070961D01*
X128995763Y-58070961D01*
X128239801Y-57315000D01*
X128411335Y-57315000D01*
X128688574Y-57259853D01*
X128949727Y-57151680D01*
X129184759Y-56994637D01*
X129384637Y-56794759D01*
X129541680Y-56559727D01*
X129649853Y-56298574D01*
X129705000Y-56021335D01*
X129705000Y-55738665D01*
X129668688Y-55556113D01*
X132446004Y-52778798D01*
X132475002Y-52755000D01*
X132516015Y-52705026D01*
X132569975Y-52639276D01*
X132640547Y-52507246D01*
X132656203Y-52455635D01*
X132684004Y-52363985D01*
X132695001Y-52252332D01*
X132695001Y-52252323D01*
X132698677Y-52215000D01*
X132695001Y-52177677D01*
X132695001Y-50658665D01*
X134455000Y-50658665D01*
X134455000Y-50941335D01*
X134510147Y-51218574D01*
X134618320Y-51479727D01*
X134775363Y-51714759D01*
X134975241Y-51914637D01*
X135207759Y-52070000D01*
X134975241Y-52225363D01*
X134775363Y-52425241D01*
X134618320Y-52660273D01*
X134510147Y-52921426D01*
X134455000Y-53198665D01*
X134455000Y-53481335D01*
X134510147Y-53758574D01*
X134618320Y-54019727D01*
X134775363Y-54254759D01*
X134975241Y-54454637D01*
X135207759Y-54610000D01*
X134975241Y-54765363D01*
X134775363Y-54965241D01*
X134618320Y-55200273D01*
X134510147Y-55461426D01*
X134455000Y-55738665D01*
X134455000Y-56021335D01*
X134510147Y-56298574D01*
X134618320Y-56559727D01*
X134775363Y-56794759D01*
X134975241Y-56994637D01*
X135210273Y-57151680D01*
X135471426Y-57259853D01*
X135748665Y-57315000D01*
X136031335Y-57315000D01*
X136308574Y-57259853D01*
X136569727Y-57151680D01*
X136804759Y-56994637D01*
X137004637Y-56794759D01*
X137161680Y-56559727D01*
X137269853Y-56298574D01*
X137325000Y-56021335D01*
X137325000Y-55738665D01*
X137269853Y-55461426D01*
X137161680Y-55200273D01*
X137004637Y-54965241D01*
X136804759Y-54765363D01*
X136572241Y-54610000D01*
X136804759Y-54454637D01*
X137004637Y-54254759D01*
X137161680Y-54019727D01*
X137269853Y-53758574D01*
X137325000Y-53481335D01*
X137325000Y-53198665D01*
X137269853Y-52921426D01*
X137161680Y-52660273D01*
X137004637Y-52425241D01*
X136804759Y-52225363D01*
X136572241Y-52070000D01*
X136804759Y-51914637D01*
X137004637Y-51714759D01*
X137161680Y-51479727D01*
X137269853Y-51218574D01*
X137325000Y-50941335D01*
X137325000Y-50658665D01*
X137269853Y-50381426D01*
X137161680Y-50120273D01*
X137004637Y-49885241D01*
X136804759Y-49685363D01*
X136569727Y-49528320D01*
X136559135Y-49523933D01*
X136745131Y-49412385D01*
X136953519Y-49223414D01*
X137121037Y-48997420D01*
X137241246Y-48743087D01*
X137281904Y-48609039D01*
X137159915Y-48387000D01*
X136017000Y-48387000D01*
X136017000Y-48407000D01*
X135763000Y-48407000D01*
X135763000Y-48387000D01*
X134620085Y-48387000D01*
X134498096Y-48609039D01*
X134538754Y-48743087D01*
X134658963Y-48997420D01*
X134826481Y-49223414D01*
X135034869Y-49412385D01*
X135220865Y-49523933D01*
X135210273Y-49528320D01*
X134975241Y-49685363D01*
X134775363Y-49885241D01*
X134618320Y-50120273D01*
X134510147Y-50381426D01*
X134455000Y-50658665D01*
X132695001Y-50658665D01*
X132695001Y-40498665D01*
X134455000Y-40498665D01*
X134455000Y-40781335D01*
X134510147Y-41058574D01*
X134618320Y-41319727D01*
X134775363Y-41554759D01*
X134975241Y-41754637D01*
X135207759Y-41910000D01*
X134975241Y-42065363D01*
X134775363Y-42265241D01*
X134618320Y-42500273D01*
X134510147Y-42761426D01*
X134455000Y-43038665D01*
X134455000Y-43321335D01*
X134510147Y-43598574D01*
X134618320Y-43859727D01*
X134775363Y-44094759D01*
X134975241Y-44294637D01*
X135207759Y-44450000D01*
X134975241Y-44605363D01*
X134775363Y-44805241D01*
X134618320Y-45040273D01*
X134510147Y-45301426D01*
X134455000Y-45578665D01*
X134455000Y-45861335D01*
X134510147Y-46138574D01*
X134618320Y-46399727D01*
X134775363Y-46634759D01*
X134975241Y-46834637D01*
X135210273Y-46991680D01*
X135220865Y-46996067D01*
X135034869Y-47107615D01*
X134826481Y-47296586D01*
X134658963Y-47522580D01*
X134538754Y-47776913D01*
X134498096Y-47910961D01*
X134620085Y-48133000D01*
X135763000Y-48133000D01*
X135763000Y-48113000D01*
X136017000Y-48113000D01*
X136017000Y-48133000D01*
X137159915Y-48133000D01*
X137281904Y-47910961D01*
X137241246Y-47776913D01*
X137121037Y-47522580D01*
X136953519Y-47296586D01*
X136745131Y-47107615D01*
X136559135Y-46996067D01*
X136569727Y-46991680D01*
X136804759Y-46834637D01*
X137004637Y-46634759D01*
X137161680Y-46399727D01*
X137269853Y-46138574D01*
X137325000Y-45861335D01*
X137325000Y-45578665D01*
X137269853Y-45301426D01*
X137161680Y-45040273D01*
X137004637Y-44805241D01*
X136804759Y-44605363D01*
X136572241Y-44450000D01*
X136804759Y-44294637D01*
X137004637Y-44094759D01*
X137161680Y-43859727D01*
X137269853Y-43598574D01*
X137325000Y-43321335D01*
X137325000Y-43038665D01*
X137269853Y-42761426D01*
X137161680Y-42500273D01*
X137004637Y-42265241D01*
X136804759Y-42065363D01*
X136572241Y-41910000D01*
X136804759Y-41754637D01*
X137004637Y-41554759D01*
X137161680Y-41319727D01*
X137269853Y-41058574D01*
X137325000Y-40781335D01*
X137325000Y-40498665D01*
X137269853Y-40221426D01*
X137161680Y-39960273D01*
X137004637Y-39725241D01*
X136804759Y-39525363D01*
X136569727Y-39368320D01*
X136308574Y-39260147D01*
X136031335Y-39205000D01*
X135748665Y-39205000D01*
X135471426Y-39260147D01*
X135210273Y-39368320D01*
X134975241Y-39525363D01*
X134775363Y-39725241D01*
X134618320Y-39960273D01*
X134510147Y-40221426D01*
X134455000Y-40498665D01*
X132695001Y-40498665D01*
X132695001Y-29102326D01*
X132698677Y-29065001D01*
X132695001Y-29027676D01*
X132695001Y-29027668D01*
X132684004Y-28916015D01*
X132640547Y-28772754D01*
X132569975Y-28640725D01*
X132475002Y-28525000D01*
X132446005Y-28501203D01*
X132208688Y-28263886D01*
X132245000Y-28081335D01*
X132245000Y-27798665D01*
X132189853Y-27521426D01*
X132081680Y-27260273D01*
X131924637Y-27025241D01*
X131724759Y-26825363D01*
X131489727Y-26668320D01*
X131228574Y-26560147D01*
X130951335Y-26505000D01*
X130668665Y-26505000D01*
X130391426Y-26560147D01*
X130130273Y-26668320D01*
X129895241Y-26825363D01*
X129695363Y-27025241D01*
X129538320Y-27260273D01*
X129430147Y-27521426D01*
X129375000Y-27798665D01*
X129375000Y-28081335D01*
X129430147Y-28358574D01*
X129538320Y-28619727D01*
X129695363Y-28854759D01*
X129895241Y-29054637D01*
X130130273Y-29211680D01*
X130391426Y-29319853D01*
X130668665Y-29375000D01*
X130951335Y-29375000D01*
X131133886Y-29338688D01*
X131175001Y-29379803D01*
X131175001Y-31629491D01*
X130951335Y-31585000D01*
X130668665Y-31585000D01*
X130391426Y-31640147D01*
X130130273Y-31748320D01*
X129895241Y-31905363D01*
X129695363Y-32105241D01*
X129538320Y-32340273D01*
X129430147Y-32601426D01*
X129375000Y-32878665D01*
X129375000Y-33161335D01*
X129430147Y-33438574D01*
X129538320Y-33699727D01*
X129695363Y-33934759D01*
X129895241Y-34134637D01*
X130050000Y-34238044D01*
X130050001Y-40325196D01*
X129708072Y-40667125D01*
X129708072Y-39840000D01*
X129695812Y-39715518D01*
X129659502Y-39595820D01*
X129600537Y-39485506D01*
X129521185Y-39388815D01*
X129424494Y-39309463D01*
X129314180Y-39250498D01*
X129194482Y-39214188D01*
X129070000Y-39201928D01*
X129030000Y-39201928D01*
X129030000Y-25714801D01*
X130486114Y-24258688D01*
X130668665Y-24295000D01*
X130951335Y-24295000D01*
X131228574Y-24239853D01*
X131489727Y-24131680D01*
X131724759Y-23974637D01*
X131924637Y-23774759D01*
X132081680Y-23539727D01*
X132189853Y-23278574D01*
X132245000Y-23001335D01*
X132245000Y-22718665D01*
X142075000Y-22718665D01*
X142075000Y-23001335D01*
X142130147Y-23278574D01*
X142238320Y-23539727D01*
X142395363Y-23774759D01*
X142595241Y-23974637D01*
X142830273Y-24131680D01*
X143091426Y-24239853D01*
X143368665Y-24295000D01*
X143651335Y-24295000D01*
X143928574Y-24239853D01*
X144189727Y-24131680D01*
X144424759Y-23974637D01*
X144624637Y-23774759D01*
X144781680Y-23539727D01*
X144889853Y-23278574D01*
X144945000Y-23001335D01*
X144945000Y-22718665D01*
X144889853Y-22441426D01*
X144781680Y-22180273D01*
X144624637Y-21945241D01*
X144424759Y-21745363D01*
X144189727Y-21588320D01*
X143928574Y-21480147D01*
X143651335Y-21425000D01*
X143368665Y-21425000D01*
X143091426Y-21480147D01*
X142830273Y-21588320D01*
X142595241Y-21745363D01*
X142395363Y-21945241D01*
X142238320Y-22180273D01*
X142130147Y-22441426D01*
X142075000Y-22718665D01*
X132245000Y-22718665D01*
X132189853Y-22441426D01*
X132081680Y-22180273D01*
X131924637Y-21945241D01*
X131724759Y-21745363D01*
X131489727Y-21588320D01*
X131228574Y-21480147D01*
X130951335Y-21425000D01*
X130668665Y-21425000D01*
X130391426Y-21480147D01*
X130130273Y-21588320D01*
X129895241Y-21745363D01*
X129695363Y-21945241D01*
X129538320Y-22180273D01*
X129430147Y-22441426D01*
X129375000Y-22718665D01*
X129375000Y-23001335D01*
X129411312Y-23183886D01*
X127759003Y-24836196D01*
X127729999Y-24859999D01*
X127674871Y-24927174D01*
X127635026Y-24975724D01*
X127575994Y-25086165D01*
X127564454Y-25107754D01*
X127520997Y-25251015D01*
X127510000Y-25362668D01*
X127510000Y-25362678D01*
X127506324Y-25400000D01*
X127510000Y-25437322D01*
X127510001Y-39201928D01*
X127470000Y-39201928D01*
X127345518Y-39214188D01*
X127225820Y-39250498D01*
X127115506Y-39309463D01*
X127018815Y-39388815D01*
X126939463Y-39485506D01*
X126880498Y-39595820D01*
X126844188Y-39715518D01*
X126831928Y-39840000D01*
X126831928Y-41440000D01*
X126844188Y-41564482D01*
X126880498Y-41684180D01*
X126939463Y-41794494D01*
X127018815Y-41891185D01*
X127115506Y-41970537D01*
X127225820Y-42029502D01*
X127345518Y-42065812D01*
X127353961Y-42066643D01*
X127155363Y-42265241D01*
X126998320Y-42500273D01*
X126890147Y-42761426D01*
X126835000Y-43038665D01*
X126835000Y-43321335D01*
X126890147Y-43598574D01*
X126998320Y-43859727D01*
X127155363Y-44094759D01*
X127355241Y-44294637D01*
X127587759Y-44450000D01*
X127355241Y-44605363D01*
X127155363Y-44805241D01*
X126998320Y-45040273D01*
X126890147Y-45301426D01*
X126835000Y-45578665D01*
X126835000Y-45750198D01*
X117455001Y-36370200D01*
X117455001Y-29142326D01*
X117458677Y-29105001D01*
X117455001Y-29067676D01*
X117455001Y-29067668D01*
X117444004Y-28956015D01*
X117400547Y-28812754D01*
X117329975Y-28680725D01*
X117235002Y-28565000D01*
X117206005Y-28541203D01*
X116968688Y-28303886D01*
X117005000Y-28121335D01*
X117005000Y-27838665D01*
X116949853Y-27561426D01*
X116841680Y-27300273D01*
X116684637Y-27065241D01*
X116484759Y-26865363D01*
X116249727Y-26708320D01*
X115988574Y-26600147D01*
X115711335Y-26545000D01*
X115428665Y-26545000D01*
X115151426Y-26600147D01*
X114890273Y-26708320D01*
X114655241Y-26865363D01*
X114455363Y-27065241D01*
X114351957Y-27220000D01*
X112978043Y-27220000D01*
X112874637Y-27065241D01*
X112674759Y-26865363D01*
X112439727Y-26708320D01*
X112178574Y-26600147D01*
X111901335Y-26545000D01*
X111618665Y-26545000D01*
X111341426Y-26600147D01*
X111080273Y-26708320D01*
X110845241Y-26865363D01*
X110645363Y-27065241D01*
X110568684Y-27180000D01*
X105578072Y-27180000D01*
X105578072Y-27140000D01*
X105565812Y-27015518D01*
X105529502Y-26895820D01*
X105470537Y-26785506D01*
X105391185Y-26688815D01*
X105294494Y-26609463D01*
X105184180Y-26550498D01*
X105064482Y-26514188D01*
X104940000Y-26501928D01*
X103340000Y-26501928D01*
X103215518Y-26514188D01*
X103095820Y-26550498D01*
X102985506Y-26609463D01*
X102888815Y-26688815D01*
X102809463Y-26785506D01*
X102750498Y-26895820D01*
X102714188Y-27015518D01*
X102701928Y-27140000D01*
X102701928Y-27180000D01*
X95328072Y-27180000D01*
X95328072Y-26950000D01*
X95315812Y-26825518D01*
X95279502Y-26705820D01*
X95220537Y-26595506D01*
X95141185Y-26498815D01*
X95044494Y-26419463D01*
X94934180Y-26360498D01*
X94845000Y-26333446D01*
X94845000Y-26284345D01*
X99944346Y-21185000D01*
X150245655Y-21185000D01*
X151535000Y-22474346D01*
X151535001Y-25785654D01*
X151015655Y-26305000D01*
X150228072Y-26305000D01*
X150228072Y-24447500D01*
X150215812Y-24323018D01*
X150179502Y-24203320D01*
X150120537Y-24093006D01*
X150041185Y-23996315D01*
X149944494Y-23916963D01*
X149834180Y-23857998D01*
X149714482Y-23821688D01*
X149590000Y-23809428D01*
X147590000Y-23809428D01*
X147465518Y-23821688D01*
X147345820Y-23857998D01*
X147235506Y-23916963D01*
X147138815Y-23996315D01*
X147059463Y-24093006D01*
X147000498Y-24203320D01*
X146964188Y-24323018D01*
X146951928Y-24447500D01*
X146951928Y-26352500D01*
X146964188Y-26476982D01*
X147000498Y-26596680D01*
X147059463Y-26706994D01*
X147138815Y-26803685D01*
X147235506Y-26883037D01*
X147309751Y-26922722D01*
X147223969Y-27027248D01*
X147072148Y-27311285D01*
X146978657Y-27619484D01*
X146947089Y-27940000D01*
X146978657Y-28260516D01*
X147072148Y-28568715D01*
X147223969Y-28852752D01*
X147428286Y-29101714D01*
X147560233Y-29210000D01*
X147428286Y-29318286D01*
X147223969Y-29567249D01*
X147072148Y-29851286D01*
X146978657Y-30159485D01*
X146955000Y-30399679D01*
X146955000Y-30402014D01*
X146947319Y-30480000D01*
X146955000Y-30557986D01*
X146955001Y-36806834D01*
X146806224Y-36988119D01*
X146607975Y-37359018D01*
X146485893Y-37761467D01*
X146444671Y-38180000D01*
X146485893Y-38598533D01*
X146607975Y-39000982D01*
X146806224Y-39371881D01*
X147006165Y-39615510D01*
X160050655Y-52660000D01*
X156564802Y-52660000D01*
X156338688Y-52433886D01*
X156375000Y-52251335D01*
X156375000Y-51968665D01*
X156319853Y-51691426D01*
X156211680Y-51430273D01*
X156054637Y-51195241D01*
X155854759Y-50995363D01*
X155619727Y-50838320D01*
X155358574Y-50730147D01*
X155081335Y-50675000D01*
X154798665Y-50675000D01*
X154521426Y-50730147D01*
X154260273Y-50838320D01*
X154025241Y-50995363D01*
X153825363Y-51195241D01*
X153668320Y-51430273D01*
X153560147Y-51691426D01*
X153505000Y-51968665D01*
X153505000Y-52100198D01*
X141098688Y-39693887D01*
X141135000Y-39511335D01*
X141135000Y-39228665D01*
X141079853Y-38951426D01*
X140971680Y-38690273D01*
X140814637Y-38455241D01*
X140614759Y-38255363D01*
X140412173Y-38120000D01*
X140614759Y-37984637D01*
X140814637Y-37784759D01*
X140971680Y-37549727D01*
X141079853Y-37288574D01*
X141135000Y-37011335D01*
X141135000Y-36728665D01*
X141079853Y-36451426D01*
X140971680Y-36190273D01*
X140814637Y-35955241D01*
X140614759Y-35755363D01*
X140460000Y-35651957D01*
X140460000Y-32878665D01*
X142075000Y-32878665D01*
X142075000Y-33161335D01*
X142130147Y-33438574D01*
X142238320Y-33699727D01*
X142395363Y-33934759D01*
X142595241Y-34134637D01*
X142830273Y-34291680D01*
X143091426Y-34399853D01*
X143368665Y-34455000D01*
X143651335Y-34455000D01*
X143928574Y-34399853D01*
X144189727Y-34291680D01*
X144424759Y-34134637D01*
X144624637Y-33934759D01*
X144781680Y-33699727D01*
X144889853Y-33438574D01*
X144945000Y-33161335D01*
X144945000Y-32878665D01*
X144889853Y-32601426D01*
X144781680Y-32340273D01*
X144624637Y-32105241D01*
X144424759Y-31905363D01*
X144189727Y-31748320D01*
X143928574Y-31640147D01*
X143651335Y-31585000D01*
X143368665Y-31585000D01*
X143091426Y-31640147D01*
X142830273Y-31748320D01*
X142595241Y-31905363D01*
X142395363Y-32105241D01*
X142238320Y-32340273D01*
X142130147Y-32601426D01*
X142075000Y-32878665D01*
X140460000Y-32878665D01*
X140460000Y-32064801D01*
X143186114Y-29338688D01*
X143368665Y-29375000D01*
X143651335Y-29375000D01*
X143928574Y-29319853D01*
X144189727Y-29211680D01*
X144424759Y-29054637D01*
X144624637Y-28854759D01*
X144781680Y-28619727D01*
X144889853Y-28358574D01*
X144945000Y-28081335D01*
X144945000Y-27798665D01*
X144889853Y-27521426D01*
X144781680Y-27260273D01*
X144624637Y-27025241D01*
X144424759Y-26825363D01*
X144189727Y-26668320D01*
X143928574Y-26560147D01*
X143651335Y-26505000D01*
X143368665Y-26505000D01*
X143091426Y-26560147D01*
X142830273Y-26668320D01*
X142595241Y-26825363D01*
X142395363Y-27025241D01*
X142238320Y-27260273D01*
X142130147Y-27521426D01*
X142075000Y-27798665D01*
X142075000Y-28081335D01*
X142111312Y-28263886D01*
X139188998Y-31186201D01*
X139160000Y-31209999D01*
X139136202Y-31238997D01*
X139136201Y-31238998D01*
X139065026Y-31325724D01*
X138994454Y-31457754D01*
X138950998Y-31601015D01*
X138936324Y-31750000D01*
X138940001Y-31787332D01*
X138940000Y-35651956D01*
X138785241Y-35755363D01*
X138585363Y-35955241D01*
X138428320Y-36190273D01*
X138320147Y-36451426D01*
X138265000Y-36728665D01*
X138265000Y-37011335D01*
X138320147Y-37288574D01*
X138428320Y-37549727D01*
X138585363Y-37784759D01*
X138785241Y-37984637D01*
X138987827Y-38120000D01*
X138785241Y-38255363D01*
X138585363Y-38455241D01*
X138428320Y-38690273D01*
X138320147Y-38951426D01*
X138265000Y-39228665D01*
X138265000Y-39511335D01*
X138320147Y-39788574D01*
X138428320Y-40049727D01*
X138585363Y-40284759D01*
X138785241Y-40484637D01*
X139020273Y-40641680D01*
X139281426Y-40749853D01*
X139558665Y-40805000D01*
X139841335Y-40805000D01*
X140023887Y-40768688D01*
X153541312Y-54286114D01*
X153505000Y-54468665D01*
X153505000Y-54751335D01*
X153560147Y-55028574D01*
X153668320Y-55289727D01*
X153825363Y-55524759D01*
X154025241Y-55724637D01*
X154180000Y-55828044D01*
X154180000Y-56419475D01*
X154119018Y-56437974D01*
X153748119Y-56636223D01*
X153423023Y-56903023D01*
X153156223Y-57228119D01*
X152957974Y-57599018D01*
X152835892Y-58001467D01*
X152794670Y-58420000D01*
X152835892Y-58838533D01*
X152957974Y-59240982D01*
X153156223Y-59611881D01*
X153423023Y-59936977D01*
X153530235Y-60024964D01*
X148913887Y-64641312D01*
X148731335Y-64605000D01*
X148448665Y-64605000D01*
X148171426Y-64660147D01*
X147910273Y-64768320D01*
X147675241Y-64925363D01*
X147475363Y-65125241D01*
X147318320Y-65360273D01*
X147210147Y-65621426D01*
X147155000Y-65898665D01*
X147155000Y-66181335D01*
X147210147Y-66458574D01*
X147318320Y-66719727D01*
X147475363Y-66954759D01*
X147675241Y-67154637D01*
X147910273Y-67311680D01*
X148171426Y-67419853D01*
X148448665Y-67475000D01*
X148731335Y-67475000D01*
X149008574Y-67419853D01*
X149269727Y-67311680D01*
X149504759Y-67154637D01*
X149704637Y-66954759D01*
X149861680Y-66719727D01*
X149969853Y-66458574D01*
X150025000Y-66181335D01*
X150025000Y-65898665D01*
X149988688Y-65716113D01*
X155149802Y-60555000D01*
X163934882Y-60555000D01*
X164248533Y-60524108D01*
X164650982Y-60402026D01*
X165021881Y-60203777D01*
X165211608Y-60048072D01*
X165810000Y-60048072D01*
X165934482Y-60035812D01*
X166054180Y-59999502D01*
X166164494Y-59940537D01*
X166261185Y-59861185D01*
X166340537Y-59764494D01*
X166399502Y-59654180D01*
X166435812Y-59534482D01*
X166448072Y-59410000D01*
X166448072Y-57430000D01*
X166435812Y-57305518D01*
X166399502Y-57185820D01*
X166340537Y-57075506D01*
X166261185Y-56978815D01*
X166164494Y-56899463D01*
X166054180Y-56840498D01*
X165934482Y-56804188D01*
X165810000Y-56791928D01*
X165211608Y-56791928D01*
X165021881Y-56636223D01*
X164650982Y-56437974D01*
X164248533Y-56315892D01*
X163934882Y-56285000D01*
X155700000Y-56285000D01*
X155700000Y-55828043D01*
X155854759Y-55724637D01*
X156054637Y-55524759D01*
X156211680Y-55289727D01*
X156319853Y-55028574D01*
X156375000Y-54751335D01*
X156375000Y-54468665D01*
X156319853Y-54191426D01*
X156315120Y-54180000D01*
X161403661Y-54180000D01*
X161482325Y-54327170D01*
X161685392Y-54574608D01*
X161932830Y-54777675D01*
X162215131Y-54928568D01*
X162364548Y-54973893D01*
X162394490Y-55003835D01*
X162638118Y-55203776D01*
X163009018Y-55402026D01*
X163411466Y-55524108D01*
X163830000Y-55565329D01*
X164248533Y-55524108D01*
X164650982Y-55402026D01*
X165021881Y-55203776D01*
X165305831Y-54970745D01*
X165444869Y-54928568D01*
X165727170Y-54777675D01*
X165974608Y-54574608D01*
X166177675Y-54327170D01*
X166328568Y-54044869D01*
X166421487Y-53738556D01*
X166452862Y-53420000D01*
X166421487Y-53101444D01*
X166328568Y-52795131D01*
X166177675Y-52512830D01*
X165974608Y-52265392D01*
X165727170Y-52062325D01*
X165444869Y-51911432D01*
X165295452Y-51866107D01*
X150225000Y-36795655D01*
X150225000Y-30557986D01*
X150232681Y-30480000D01*
X150225000Y-30402014D01*
X150225000Y-30399678D01*
X150201343Y-30159484D01*
X150107852Y-29851285D01*
X149960175Y-29575000D01*
X151026835Y-29575000D01*
X151208119Y-29723776D01*
X151579018Y-29922025D01*
X151981467Y-30044107D01*
X152400000Y-30085329D01*
X152818533Y-30044107D01*
X153220982Y-29922025D01*
X153591881Y-29723776D01*
X153835510Y-29523835D01*
X155105508Y-28253837D01*
X155186977Y-28186977D01*
X155453777Y-27861881D01*
X155537578Y-27705098D01*
X162865000Y-27705098D01*
X162865000Y-28174902D01*
X162956654Y-28635679D01*
X163136440Y-29069721D01*
X163397450Y-29460349D01*
X163729651Y-29792550D01*
X164120279Y-30053560D01*
X164554321Y-30233346D01*
X165015098Y-30325000D01*
X165484902Y-30325000D01*
X165945679Y-30233346D01*
X166379721Y-30053560D01*
X166770349Y-29792550D01*
X167102550Y-29460349D01*
X167363560Y-29069721D01*
X167543346Y-28635679D01*
X167635000Y-28174902D01*
X167635000Y-27705098D01*
X167543346Y-27244321D01*
X167363560Y-26810279D01*
X167102550Y-26419651D01*
X166770349Y-26087450D01*
X166379721Y-25826440D01*
X165945679Y-25646654D01*
X165484902Y-25555000D01*
X165015098Y-25555000D01*
X164554321Y-25646654D01*
X164120279Y-25826440D01*
X163729651Y-26087450D01*
X163397450Y-26419651D01*
X163136440Y-26810279D01*
X162956654Y-27244321D01*
X162865000Y-27705098D01*
X155537578Y-27705098D01*
X155652026Y-27490982D01*
X155774108Y-27088533D01*
X155805000Y-26774882D01*
X155805000Y-26774873D01*
X155815329Y-26670001D01*
X155805000Y-26565129D01*
X155805000Y-21694871D01*
X155815329Y-21589999D01*
X155805000Y-21485127D01*
X155805000Y-21485118D01*
X155774108Y-21171467D01*
X155652026Y-20769018D01*
X155453777Y-20398119D01*
X155394868Y-20326338D01*
X155253835Y-20154489D01*
X155253833Y-20154487D01*
X155186977Y-20073023D01*
X155105513Y-20006167D01*
X152713837Y-17614492D01*
X152646977Y-17533023D01*
X152321881Y-17266223D01*
X151950982Y-17067974D01*
X151548533Y-16945892D01*
X151234882Y-16915000D01*
X151234872Y-16915000D01*
X151130000Y-16904671D01*
X151025128Y-16915000D01*
X99164871Y-16915000D01*
X99059999Y-16904671D01*
X98955127Y-16915000D01*
X98955118Y-16915000D01*
X98641467Y-16945892D01*
X98239018Y-17067974D01*
X97868119Y-17266223D01*
X97868117Y-17266224D01*
X97868118Y-17266224D01*
X97624489Y-17466165D01*
X97624487Y-17466167D01*
X97543023Y-17533023D01*
X97476167Y-17614487D01*
X91274487Y-23816167D01*
X91193024Y-23883023D01*
X91126168Y-23964487D01*
X91126165Y-23964490D01*
X91117838Y-23974637D01*
X90926224Y-24208119D01*
X90727975Y-24579018D01*
X90605892Y-24981467D01*
X90575000Y-25295118D01*
X90575000Y-25295128D01*
X90564671Y-25400000D01*
X90575000Y-25504872D01*
X90575000Y-26333446D01*
X90485820Y-26360498D01*
X90375506Y-26419463D01*
X90278815Y-26498815D01*
X90199463Y-26595506D01*
X90140498Y-26705820D01*
X90104188Y-26825518D01*
X90091928Y-26950000D01*
X90091928Y-28930000D01*
X90104188Y-29054482D01*
X90140498Y-29174180D01*
X90199463Y-29284494D01*
X90240590Y-29334608D01*
X85849003Y-33726196D01*
X85819999Y-33749999D01*
X85764871Y-33817174D01*
X85725026Y-33865724D01*
X85688126Y-33934759D01*
X85654454Y-33997754D01*
X85610997Y-34141015D01*
X85600000Y-34252668D01*
X85600000Y-34252678D01*
X85596324Y-34290000D01*
X85600000Y-34327323D01*
X85600001Y-37915091D01*
X85585537Y-37921082D01*
X85317748Y-38100013D01*
X85090013Y-38327748D01*
X84911082Y-38595537D01*
X84787832Y-38893088D01*
X84725000Y-39208967D01*
X77597000Y-39208967D01*
X77597000Y-15367000D01*
X175133000Y-15367000D01*
X175133000Y-86233000D01*
%TA.AperFunction,Conductor*%
D24*
G36*
X175133000Y-86233000D02*
G01*
X77597000Y-86233000D01*
X77597000Y-76026602D01*
X101793003Y-76026602D01*
X101909275Y-76308389D01*
X102227860Y-76466257D01*
X102571122Y-76558938D01*
X102925869Y-76582873D01*
X103278470Y-76537139D01*
X103615373Y-76423495D01*
X103830725Y-76308389D01*
X103946997Y-76026602D01*
X102870000Y-74949605D01*
X101793003Y-76026602D01*
X77597000Y-76026602D01*
X77597000Y-74825869D01*
X101057127Y-74825869D01*
X101102861Y-75178470D01*
X101216505Y-75515373D01*
X101331611Y-75730725D01*
X101613398Y-75846997D01*
X102690395Y-74770000D01*
X103049605Y-74770000D01*
X104126602Y-75846997D01*
X104408389Y-75730725D01*
X104566257Y-75412140D01*
X104658938Y-75068878D01*
X104682873Y-74714131D01*
X104637139Y-74361530D01*
X104523495Y-74024627D01*
X104408389Y-73809275D01*
X104126602Y-73693003D01*
X103049605Y-74770000D01*
X102690395Y-74770000D01*
X101613398Y-73693003D01*
X101331611Y-73809275D01*
X101173743Y-74127860D01*
X101081062Y-74471122D01*
X101057127Y-74825869D01*
X77597000Y-74825869D01*
X77597000Y-69338115D01*
X88485000Y-69338115D01*
X88485000Y-70201885D01*
X88653513Y-71049057D01*
X88984064Y-71847076D01*
X89463948Y-72565274D01*
X90074726Y-73176052D01*
X90792924Y-73655936D01*
X91590943Y-73986487D01*
X92438115Y-74155000D01*
X93301885Y-74155000D01*
X94149057Y-73986487D01*
X94947076Y-73655936D01*
X95160399Y-73513398D01*
X101793003Y-73513398D01*
X102870000Y-74590395D01*
X103946997Y-73513398D01*
X103830725Y-73231611D01*
X103512140Y-73073743D01*
X103168878Y-72981062D01*
X102814131Y-72957127D01*
X102461530Y-73002861D01*
X102124627Y-73116505D01*
X101909275Y-73231611D01*
X101793003Y-73513398D01*
X95160399Y-73513398D01*
X95665274Y-73176052D01*
X96276052Y-72565274D01*
X96755936Y-71847076D01*
X97086487Y-71049057D01*
X97255000Y-70201885D01*
X97255000Y-69592223D01*
X101065000Y-69592223D01*
X101065000Y-69947777D01*
X101134365Y-70296499D01*
X101270429Y-70624988D01*
X101467965Y-70920621D01*
X101719379Y-71172035D01*
X102015012Y-71369571D01*
X102343501Y-71505635D01*
X102692223Y-71575000D01*
X103047777Y-71575000D01*
X103396499Y-71505635D01*
X103724988Y-71369571D01*
X104020621Y-71172035D01*
X104272035Y-70920621D01*
X104469571Y-70624988D01*
X104475779Y-70610000D01*
X105461957Y-70610000D01*
X105565363Y-70764759D01*
X105765241Y-70964637D01*
X106000273Y-71121680D01*
X106261426Y-71229853D01*
X106538665Y-71285000D01*
X106821335Y-71285000D01*
X107098574Y-71229853D01*
X107359727Y-71121680D01*
X107594759Y-70964637D01*
X107794637Y-70764759D01*
X107951680Y-70529727D01*
X108059853Y-70268574D01*
X108115000Y-69991335D01*
X108115000Y-69708665D01*
X108059853Y-69431426D01*
X107951680Y-69170273D01*
X107794637Y-68935241D01*
X107594759Y-68735363D01*
X107359727Y-68578320D01*
X107098574Y-68470147D01*
X106821335Y-68415000D01*
X106538665Y-68415000D01*
X106261426Y-68470147D01*
X106000273Y-68578320D01*
X105765241Y-68735363D01*
X105565363Y-68935241D01*
X105461957Y-69090000D01*
X104542053Y-69090000D01*
X104469571Y-68915012D01*
X104272035Y-68619379D01*
X104020621Y-68367965D01*
X103724988Y-68170429D01*
X103396499Y-68034365D01*
X103047777Y-67965000D01*
X102692223Y-67965000D01*
X102343501Y-68034365D01*
X102015012Y-68170429D01*
X101719379Y-68367965D01*
X101467965Y-68619379D01*
X101270429Y-68915012D01*
X101134365Y-69243501D01*
X101065000Y-69592223D01*
X97255000Y-69592223D01*
X97255000Y-69338115D01*
X97086487Y-68490943D01*
X96755936Y-67692924D01*
X96276052Y-66974726D01*
X95665274Y-66363948D01*
X94947076Y-65884064D01*
X94149057Y-65553513D01*
X93301885Y-65385000D01*
X92438115Y-65385000D01*
X91590943Y-65553513D01*
X90792924Y-65884064D01*
X90074726Y-66363948D01*
X89463948Y-66974726D01*
X88984064Y-67692924D01*
X88653513Y-68490943D01*
X88485000Y-69338115D01*
X77597000Y-69338115D01*
X77597000Y-50288115D01*
X88485000Y-50288115D01*
X88485000Y-51151885D01*
X88653513Y-51999057D01*
X88984064Y-52797076D01*
X89463948Y-53515274D01*
X90074726Y-54126052D01*
X90792924Y-54605936D01*
X91590943Y-54936487D01*
X92438115Y-55105000D01*
X93301885Y-55105000D01*
X94149057Y-54936487D01*
X94947076Y-54605936D01*
X95665274Y-54126052D01*
X96276052Y-53515274D01*
X96755936Y-52797076D01*
X97086487Y-51999057D01*
X97255000Y-51151885D01*
X97255000Y-50288115D01*
X97104202Y-49530000D01*
X98296324Y-49530000D01*
X98300001Y-49567332D01*
X98300000Y-60922678D01*
X98296324Y-60960000D01*
X98300000Y-60997322D01*
X98300000Y-60997332D01*
X98310997Y-61108985D01*
X98354454Y-61252246D01*
X98425026Y-61384276D01*
X98464871Y-61432826D01*
X98519999Y-61500001D01*
X98549003Y-61523804D01*
X101173710Y-64148512D01*
X101134365Y-64243501D01*
X101065000Y-64592223D01*
X101065000Y-64947777D01*
X101134365Y-65296499D01*
X101270429Y-65624988D01*
X101467965Y-65920621D01*
X101719379Y-66172035D01*
X102015012Y-66369571D01*
X102343501Y-66505635D01*
X102692223Y-66575000D01*
X103047777Y-66575000D01*
X103396499Y-66505635D01*
X103724988Y-66369571D01*
X104020621Y-66172035D01*
X104272035Y-65920621D01*
X104469571Y-65624988D01*
X104605635Y-65296499D01*
X104675000Y-64947777D01*
X104675000Y-64592223D01*
X104605635Y-64243501D01*
X104469571Y-63915012D01*
X104272035Y-63619379D01*
X104020621Y-63367965D01*
X103724988Y-63170429D01*
X103396499Y-63034365D01*
X103047777Y-62965000D01*
X102692223Y-62965000D01*
X102343501Y-63034365D01*
X102248512Y-63073710D01*
X99820000Y-60645199D01*
X99820000Y-56976602D01*
X101793003Y-56976602D01*
X101909275Y-57258389D01*
X102227860Y-57416257D01*
X102571122Y-57508938D01*
X102925869Y-57532873D01*
X103278470Y-57487139D01*
X103615373Y-57373495D01*
X103830725Y-57258389D01*
X103946997Y-56976602D01*
X102870000Y-55899605D01*
X101793003Y-56976602D01*
X99820000Y-56976602D01*
X99820000Y-55775869D01*
X101057127Y-55775869D01*
X101102861Y-56128470D01*
X101216505Y-56465373D01*
X101331611Y-56680725D01*
X101613398Y-56796997D01*
X102690395Y-55720000D01*
X103049605Y-55720000D01*
X104126602Y-56796997D01*
X104408389Y-56680725D01*
X104566257Y-56362140D01*
X104658938Y-56018878D01*
X104682873Y-55664131D01*
X104637139Y-55311530D01*
X104523495Y-54974627D01*
X104408389Y-54759275D01*
X104126602Y-54643003D01*
X103049605Y-55720000D01*
X102690395Y-55720000D01*
X101613398Y-54643003D01*
X101331611Y-54759275D01*
X101173743Y-55077860D01*
X101081062Y-55421122D01*
X101057127Y-55775869D01*
X99820000Y-55775869D01*
X99820000Y-54463398D01*
X101793003Y-54463398D01*
X102870000Y-55540395D01*
X103946997Y-54463398D01*
X103830725Y-54181611D01*
X103512140Y-54023743D01*
X103168878Y-53931062D01*
X102814131Y-53907127D01*
X102461530Y-53952861D01*
X102124627Y-54066505D01*
X101909275Y-54181611D01*
X101793003Y-54463398D01*
X99820000Y-54463398D01*
X99820000Y-50542223D01*
X101065000Y-50542223D01*
X101065000Y-50897777D01*
X101134365Y-51246499D01*
X101270429Y-51574988D01*
X101467965Y-51870621D01*
X101719379Y-52122035D01*
X102015012Y-52319571D01*
X102343501Y-52455635D01*
X102692223Y-52525000D01*
X103047777Y-52525000D01*
X103396499Y-52455635D01*
X103724988Y-52319571D01*
X104020621Y-52122035D01*
X104272035Y-51870621D01*
X104469571Y-51574988D01*
X104605635Y-51246499D01*
X104675000Y-50897777D01*
X104675000Y-50658665D01*
X105245000Y-50658665D01*
X105245000Y-50941335D01*
X105300147Y-51218574D01*
X105408320Y-51479727D01*
X105565363Y-51714759D01*
X105765241Y-51914637D01*
X106000273Y-52071680D01*
X106261426Y-52179853D01*
X106538665Y-52235000D01*
X106821335Y-52235000D01*
X107098574Y-52179853D01*
X107359727Y-52071680D01*
X107594759Y-51914637D01*
X107794637Y-51714759D01*
X107951680Y-51479727D01*
X108059853Y-51218574D01*
X108115000Y-50941335D01*
X108115000Y-50658665D01*
X108059853Y-50381426D01*
X107951680Y-50120273D01*
X107794637Y-49885241D01*
X107594759Y-49685363D01*
X107359727Y-49528320D01*
X107098574Y-49420147D01*
X106821335Y-49365000D01*
X106538665Y-49365000D01*
X106261426Y-49420147D01*
X106000273Y-49528320D01*
X105765241Y-49685363D01*
X105565363Y-49885241D01*
X105408320Y-50120273D01*
X105300147Y-50381426D01*
X105245000Y-50658665D01*
X104675000Y-50658665D01*
X104675000Y-50542223D01*
X104605635Y-50193501D01*
X104469571Y-49865012D01*
X104272035Y-49569379D01*
X104020621Y-49317965D01*
X103724988Y-49120429D01*
X103396499Y-48984365D01*
X103047777Y-48915000D01*
X102692223Y-48915000D01*
X102343501Y-48984365D01*
X102015012Y-49120429D01*
X101719379Y-49317965D01*
X101467965Y-49569379D01*
X101270429Y-49865012D01*
X101134365Y-50193501D01*
X101065000Y-50542223D01*
X99820000Y-50542223D01*
X99820000Y-49844801D01*
X102248512Y-47416290D01*
X102343501Y-47455635D01*
X102692223Y-47525000D01*
X103047777Y-47525000D01*
X103396499Y-47455635D01*
X103724988Y-47319571D01*
X104020621Y-47122035D01*
X104272035Y-46870621D01*
X104469571Y-46574988D01*
X104605635Y-46246499D01*
X104675000Y-45897777D01*
X104675000Y-45542223D01*
X104605635Y-45193501D01*
X104469571Y-44865012D01*
X104272035Y-44569379D01*
X104020621Y-44317965D01*
X103724988Y-44120429D01*
X103396499Y-43984365D01*
X103047777Y-43915000D01*
X102692223Y-43915000D01*
X102360000Y-43981083D01*
X102360000Y-40824909D01*
X102374463Y-40818918D01*
X102642252Y-40639987D01*
X102869987Y-40412252D01*
X103048918Y-40144463D01*
X103054909Y-40130000D01*
X106511928Y-40130000D01*
X106511928Y-40170000D01*
X106524188Y-40294482D01*
X106560498Y-40414180D01*
X106619463Y-40524494D01*
X106698815Y-40621185D01*
X106795506Y-40700537D01*
X106905820Y-40759502D01*
X107025518Y-40795812D01*
X107150000Y-40808072D01*
X108750000Y-40808072D01*
X108874482Y-40795812D01*
X108994180Y-40759502D01*
X109104494Y-40700537D01*
X109201185Y-40621185D01*
X109280537Y-40524494D01*
X109339502Y-40414180D01*
X109355117Y-40362702D01*
X110936903Y-40362702D01*
X111008486Y-40606671D01*
X111263996Y-40727571D01*
X111538184Y-40796300D01*
X111820512Y-40810217D01*
X112100130Y-40768787D01*
X112366292Y-40673603D01*
X112491514Y-40606671D01*
X112563097Y-40362702D01*
X111750000Y-39549605D01*
X110936903Y-40362702D01*
X109355117Y-40362702D01*
X109375812Y-40294482D01*
X109388072Y-40170000D01*
X109388072Y-39440512D01*
X110309783Y-39440512D01*
X110351213Y-39720130D01*
X110446397Y-39986292D01*
X110513329Y-40111514D01*
X110757298Y-40183097D01*
X111570395Y-39370000D01*
X111929605Y-39370000D01*
X112742702Y-40183097D01*
X112986671Y-40111514D01*
X113107571Y-39856004D01*
X113176300Y-39581816D01*
X113190217Y-39299488D01*
X113148787Y-39019870D01*
X113053603Y-38753708D01*
X112986671Y-38628486D01*
X112742702Y-38556903D01*
X111929605Y-39370000D01*
X111570395Y-39370000D01*
X110757298Y-38556903D01*
X110513329Y-38628486D01*
X110392429Y-38883996D01*
X110323700Y-39158184D01*
X110309783Y-39440512D01*
X109388072Y-39440512D01*
X109388072Y-38570000D01*
X109375812Y-38445518D01*
X109355118Y-38377298D01*
X110936903Y-38377298D01*
X111750000Y-39190395D01*
X112563097Y-38377298D01*
X112491514Y-38133329D01*
X112236004Y-38012429D01*
X111961816Y-37943700D01*
X111679488Y-37929783D01*
X111399870Y-37971213D01*
X111133708Y-38066397D01*
X111008486Y-38133329D01*
X110936903Y-38377298D01*
X109355118Y-38377298D01*
X109339502Y-38325820D01*
X109280537Y-38215506D01*
X109201185Y-38118815D01*
X109104494Y-38039463D01*
X108994180Y-37980498D01*
X108874482Y-37944188D01*
X108750000Y-37931928D01*
X107150000Y-37931928D01*
X107025518Y-37944188D01*
X106905820Y-37980498D01*
X106795506Y-38039463D01*
X106698815Y-38118815D01*
X106619463Y-38215506D01*
X106560498Y-38325820D01*
X106524188Y-38445518D01*
X106511928Y-38570000D01*
X106511928Y-38610000D01*
X103054909Y-38610000D01*
X103048918Y-38595537D01*
X102869987Y-38327748D01*
X102642252Y-38100013D01*
X102374463Y-37921082D01*
X102076912Y-37797832D01*
X101761033Y-37735000D01*
X101438967Y-37735000D01*
X101123088Y-37797832D01*
X100825537Y-37921082D01*
X100557748Y-38100013D01*
X100330013Y-38327748D01*
X100151082Y-38595537D01*
X100027832Y-38893088D01*
X99965000Y-39208967D01*
X99965000Y-39531033D01*
X100027832Y-39846912D01*
X100151082Y-40144463D01*
X100330013Y-40412252D01*
X100557748Y-40639987D01*
X100825537Y-40818918D01*
X100840000Y-40824909D01*
X100840001Y-44412668D01*
X100836324Y-44450000D01*
X100840001Y-44487333D01*
X100850998Y-44598986D01*
X100855856Y-44615000D01*
X100894454Y-44742246D01*
X100965026Y-44874276D01*
X101032362Y-44956324D01*
X101060000Y-44990001D01*
X101088998Y-45013799D01*
X101173711Y-45098512D01*
X101134365Y-45193501D01*
X101065000Y-45542223D01*
X101065000Y-45897777D01*
X101134365Y-46246499D01*
X101173710Y-46341488D01*
X98548998Y-48966201D01*
X98520000Y-48989999D01*
X98496202Y-49018997D01*
X98496201Y-49018998D01*
X98425026Y-49105724D01*
X98354454Y-49237754D01*
X98332235Y-49311004D01*
X98310998Y-49381014D01*
X98300001Y-49492667D01*
X98296324Y-49530000D01*
X97104202Y-49530000D01*
X97086487Y-49440943D01*
X96755936Y-48642924D01*
X96276052Y-47924726D01*
X95665274Y-47313948D01*
X94947076Y-46834064D01*
X94149057Y-46503513D01*
X93301885Y-46335000D01*
X92438115Y-46335000D01*
X91590943Y-46503513D01*
X90792924Y-46834064D01*
X90074726Y-47313948D01*
X89463948Y-47924726D01*
X88984064Y-48642924D01*
X88653513Y-49440943D01*
X88485000Y-50288115D01*
X77597000Y-50288115D01*
X77597000Y-39208967D01*
X84725000Y-39208967D01*
X84725000Y-39531033D01*
X84787832Y-39846912D01*
X84911082Y-40144463D01*
X85090013Y-40412252D01*
X85317748Y-40639987D01*
X85585537Y-40818918D01*
X85883088Y-40942168D01*
X86198967Y-41005000D01*
X86521033Y-41005000D01*
X86836912Y-40942168D01*
X87134463Y-40818918D01*
X87402252Y-40639987D01*
X87629987Y-40412252D01*
X87808918Y-40144463D01*
X87932168Y-39846912D01*
X87995000Y-39531033D01*
X87995000Y-39208967D01*
X87932168Y-38893088D01*
X87808918Y-38595537D01*
X87629987Y-38327748D01*
X87402252Y-38100013D01*
X87134463Y-37921082D01*
X87120000Y-37915091D01*
X87120000Y-34604801D01*
X88405936Y-33318865D01*
X90139782Y-33318865D01*
X90170095Y-33444528D01*
X90298304Y-33737205D01*
X90481148Y-33999246D01*
X90711601Y-34220581D01*
X90980806Y-34392704D01*
X91278418Y-34509000D01*
X91593000Y-34565000D01*
X92583000Y-34565000D01*
X92583000Y-33067000D01*
X92837000Y-33067000D01*
X92837000Y-34565000D01*
X93827000Y-34565000D01*
X94141582Y-34509000D01*
X94439194Y-34392704D01*
X94708399Y-34220581D01*
X94938852Y-33999246D01*
X95121696Y-33737205D01*
X95249905Y-33444528D01*
X95280218Y-33318865D01*
X95160740Y-33067000D01*
X92837000Y-33067000D01*
X92583000Y-33067000D01*
X90259260Y-33067000D01*
X90139782Y-33318865D01*
X88405936Y-33318865D01*
X89163666Y-32561135D01*
X90139782Y-32561135D01*
X90259260Y-32813000D01*
X92583000Y-32813000D01*
X92583000Y-31315000D01*
X92837000Y-31315000D01*
X92837000Y-32813000D01*
X95160740Y-32813000D01*
X95198831Y-32732702D01*
X103326903Y-32732702D01*
X103398486Y-32976671D01*
X103653996Y-33097571D01*
X103928184Y-33166300D01*
X104210512Y-33180217D01*
X104490130Y-33138787D01*
X104756292Y-33043603D01*
X104881514Y-32976671D01*
X104953097Y-32732702D01*
X104140000Y-31919605D01*
X103326903Y-32732702D01*
X95198831Y-32732702D01*
X95280218Y-32561135D01*
X95249905Y-32435472D01*
X95121696Y-32142795D01*
X94938852Y-31880754D01*
X94865717Y-31810512D01*
X102699783Y-31810512D01*
X102741213Y-32090130D01*
X102836397Y-32356292D01*
X102903329Y-32481514D01*
X103147298Y-32553097D01*
X103960395Y-31740000D01*
X104319605Y-31740000D01*
X105132702Y-32553097D01*
X105376671Y-32481514D01*
X105497571Y-32226004D01*
X105566300Y-31951816D01*
X105580217Y-31669488D01*
X105551060Y-31472702D01*
X110946903Y-31472702D01*
X111018486Y-31716671D01*
X111273996Y-31837571D01*
X111548184Y-31906300D01*
X111830512Y-31920217D01*
X112110130Y-31878787D01*
X112376292Y-31783603D01*
X112501514Y-31716671D01*
X112573097Y-31472702D01*
X111760000Y-30659605D01*
X110946903Y-31472702D01*
X105551060Y-31472702D01*
X105538787Y-31389870D01*
X105443603Y-31123708D01*
X105376671Y-30998486D01*
X105132702Y-30926903D01*
X104319605Y-31740000D01*
X103960395Y-31740000D01*
X103147298Y-30926903D01*
X102903329Y-30998486D01*
X102782429Y-31253996D01*
X102713700Y-31528184D01*
X102699783Y-31810512D01*
X94865717Y-31810512D01*
X94708399Y-31659419D01*
X94439194Y-31487296D01*
X94141582Y-31371000D01*
X93827000Y-31315000D01*
X92837000Y-31315000D01*
X92583000Y-31315000D01*
X91593000Y-31315000D01*
X91278418Y-31371000D01*
X90980806Y-31487296D01*
X90711601Y-31659419D01*
X90481148Y-31880754D01*
X90298304Y-32142795D01*
X90170095Y-32435472D01*
X90139782Y-32561135D01*
X89163666Y-32561135D01*
X90977503Y-30747298D01*
X103326903Y-30747298D01*
X104140000Y-31560395D01*
X104953097Y-30747298D01*
X104895358Y-30550512D01*
X110319783Y-30550512D01*
X110361213Y-30830130D01*
X110456397Y-31096292D01*
X110523329Y-31221514D01*
X110767298Y-31293097D01*
X111580395Y-30480000D01*
X111939605Y-30480000D01*
X112752702Y-31293097D01*
X112996671Y-31221514D01*
X113117571Y-30966004D01*
X113186300Y-30691816D01*
X113193265Y-30550512D01*
X114129783Y-30550512D01*
X114171213Y-30830130D01*
X114266397Y-31096292D01*
X114333329Y-31221514D01*
X114577298Y-31293097D01*
X115390395Y-30480000D01*
X114577298Y-29666903D01*
X114333329Y-29738486D01*
X114212429Y-29993996D01*
X114143700Y-30268184D01*
X114129783Y-30550512D01*
X113193265Y-30550512D01*
X113200217Y-30409488D01*
X113158787Y-30129870D01*
X113063603Y-29863708D01*
X112996671Y-29738486D01*
X112752702Y-29666903D01*
X111939605Y-30480000D01*
X111580395Y-30480000D01*
X110767298Y-29666903D01*
X110523329Y-29738486D01*
X110402429Y-29993996D01*
X110333700Y-30268184D01*
X110319783Y-30550512D01*
X104895358Y-30550512D01*
X104881514Y-30503329D01*
X104626004Y-30382429D01*
X104351816Y-30313700D01*
X104069488Y-30299783D01*
X103789870Y-30341213D01*
X103523708Y-30436397D01*
X103398486Y-30503329D01*
X103326903Y-30747298D01*
X90977503Y-30747298D01*
X91832816Y-29891986D01*
X91889018Y-29922026D01*
X92291467Y-30044108D01*
X92710000Y-30085330D01*
X93128532Y-30044108D01*
X93530981Y-29922026D01*
X93901881Y-29723777D01*
X94091608Y-29568072D01*
X94690000Y-29568072D01*
X94814482Y-29555812D01*
X94934180Y-29519502D01*
X95044494Y-29460537D01*
X95141185Y-29381185D01*
X95220537Y-29284494D01*
X95279502Y-29174180D01*
X95315812Y-29054482D01*
X95328072Y-28930000D01*
X95328072Y-28700000D01*
X102701928Y-28700000D01*
X102701928Y-28740000D01*
X102714188Y-28864482D01*
X102750498Y-28984180D01*
X102809463Y-29094494D01*
X102888815Y-29191185D01*
X102985506Y-29270537D01*
X103095820Y-29329502D01*
X103215518Y-29365812D01*
X103340000Y-29378072D01*
X104940000Y-29378072D01*
X105064482Y-29365812D01*
X105184180Y-29329502D01*
X105294494Y-29270537D01*
X105391185Y-29191185D01*
X105470537Y-29094494D01*
X105529502Y-28984180D01*
X105565812Y-28864482D01*
X105578072Y-28740000D01*
X105578072Y-28700000D01*
X110515229Y-28700000D01*
X110645363Y-28894759D01*
X110845241Y-29094637D01*
X111045869Y-29228692D01*
X111018486Y-29243329D01*
X110946903Y-29487298D01*
X111760000Y-30300395D01*
X112573097Y-29487298D01*
X112501514Y-29243329D01*
X112472659Y-29229676D01*
X112674759Y-29094637D01*
X112874637Y-28894759D01*
X112978043Y-28740000D01*
X114351957Y-28740000D01*
X114455363Y-28894759D01*
X114655241Y-29094637D01*
X114855869Y-29228692D01*
X114828486Y-29243329D01*
X114756903Y-29487298D01*
X115570000Y-30300395D01*
X115584143Y-30286253D01*
X115763748Y-30465858D01*
X115749605Y-30480000D01*
X115763748Y-30494143D01*
X115584143Y-30673748D01*
X115570000Y-30659605D01*
X114756903Y-31472702D01*
X114828486Y-31716671D01*
X115083996Y-31837571D01*
X115358184Y-31906300D01*
X115640512Y-31920217D01*
X115920130Y-31878787D01*
X115935001Y-31873469D01*
X115935002Y-36647669D01*
X115931325Y-36685001D01*
X115945999Y-36833986D01*
X115989455Y-36977247D01*
X116060027Y-37109277D01*
X116103499Y-37162247D01*
X116155001Y-37225002D01*
X116183999Y-37248800D01*
X126871312Y-47936114D01*
X126835000Y-48118665D01*
X126835000Y-48401335D01*
X126879491Y-48625001D01*
X120832324Y-48625001D01*
X120794999Y-48621325D01*
X120757674Y-48625001D01*
X120757666Y-48625001D01*
X120646013Y-48635998D01*
X120502752Y-48679455D01*
X120370723Y-48750027D01*
X120254998Y-48845000D01*
X120231200Y-48873998D01*
X119703886Y-49401312D01*
X119521335Y-49365000D01*
X119238665Y-49365000D01*
X118961426Y-49420147D01*
X118700273Y-49528320D01*
X118465241Y-49685363D01*
X118265363Y-49885241D01*
X118108320Y-50120273D01*
X118000147Y-50381426D01*
X117945000Y-50658665D01*
X117945000Y-50941335D01*
X118000147Y-51218574D01*
X118108320Y-51479727D01*
X118265363Y-51714759D01*
X118465241Y-51914637D01*
X118700273Y-52071680D01*
X118961426Y-52179853D01*
X119238665Y-52235000D01*
X119521335Y-52235000D01*
X119798574Y-52179853D01*
X120059727Y-52071680D01*
X120294759Y-51914637D01*
X120494637Y-51714759D01*
X120651680Y-51479727D01*
X120759853Y-51218574D01*
X120815000Y-50941335D01*
X120815000Y-50658665D01*
X120778688Y-50476114D01*
X121109801Y-50145001D01*
X126988077Y-50145001D01*
X126890147Y-50381426D01*
X126835000Y-50658665D01*
X126835000Y-50941335D01*
X126871312Y-51123886D01*
X118868998Y-59126201D01*
X118840000Y-59149999D01*
X118816202Y-59178997D01*
X118816201Y-59178998D01*
X118745026Y-59265724D01*
X118674454Y-59397754D01*
X118644180Y-59497558D01*
X118632933Y-59534637D01*
X118630998Y-59541015D01*
X118616324Y-59690000D01*
X118620001Y-59727332D01*
X118620000Y-68631956D01*
X118465241Y-68735363D01*
X118265363Y-68935241D01*
X118108320Y-69170273D01*
X118000147Y-69431426D01*
X117945000Y-69708665D01*
X117945000Y-69991335D01*
X118000147Y-70268574D01*
X118108320Y-70529727D01*
X118265363Y-70764759D01*
X118465241Y-70964637D01*
X118700273Y-71121680D01*
X118961426Y-71229853D01*
X119238665Y-71285000D01*
X119521335Y-71285000D01*
X119798574Y-71229853D01*
X120059727Y-71121680D01*
X120294759Y-70964637D01*
X120494637Y-70764759D01*
X120651680Y-70529727D01*
X120759853Y-70268574D01*
X120815000Y-69991335D01*
X120815000Y-69708665D01*
X120759853Y-69431426D01*
X120651680Y-69170273D01*
X120494637Y-68935241D01*
X120294759Y-68735363D01*
X120140000Y-68631957D01*
X120140000Y-60004801D01*
X126835000Y-53309802D01*
X126835000Y-53481335D01*
X126871312Y-53663887D01*
X126634001Y-53901197D01*
X126604998Y-53925000D01*
X126576274Y-53960001D01*
X126510025Y-54040725D01*
X126439454Y-54172754D01*
X126439453Y-54172755D01*
X126395996Y-54316016D01*
X126384999Y-54427669D01*
X126384999Y-54427679D01*
X126381323Y-54465001D01*
X126384999Y-54502324D01*
X126385000Y-57257667D01*
X126381323Y-57294999D01*
X126385000Y-57332332D01*
X126395997Y-57443985D01*
X126409087Y-57487139D01*
X126439453Y-57587245D01*
X126510025Y-57719275D01*
X126563986Y-57785026D01*
X126604999Y-57835000D01*
X126633997Y-57858798D01*
X134491312Y-65716114D01*
X134455000Y-65898665D01*
X134455000Y-66181335D01*
X134510147Y-66458574D01*
X134618320Y-66719727D01*
X134775363Y-66954759D01*
X134975241Y-67154637D01*
X135210273Y-67311680D01*
X135471426Y-67419853D01*
X135748665Y-67475000D01*
X136031335Y-67475000D01*
X136308574Y-67419853D01*
X136569727Y-67311680D01*
X136804759Y-67154637D01*
X137004637Y-66954759D01*
X137161680Y-66719727D01*
X137269853Y-66458574D01*
X137325000Y-66181335D01*
X137325000Y-65898665D01*
X137269853Y-65621426D01*
X137161680Y-65360273D01*
X137004637Y-65125241D01*
X136804759Y-64925363D01*
X136569727Y-64768320D01*
X136308574Y-64660147D01*
X136031335Y-64605000D01*
X135748665Y-64605000D01*
X135566114Y-64641312D01*
X129693841Y-58769039D01*
X140848096Y-58769039D01*
X140888754Y-58903087D01*
X141008963Y-59157420D01*
X141176481Y-59383414D01*
X141384869Y-59572385D01*
X141626119Y-59717070D01*
X141890960Y-59811909D01*
X142113000Y-59690624D01*
X142113000Y-58547000D01*
X142367000Y-58547000D01*
X142367000Y-59690624D01*
X142589040Y-59811909D01*
X142853881Y-59717070D01*
X143095131Y-59572385D01*
X143303519Y-59383414D01*
X143471037Y-59157420D01*
X143591246Y-58903087D01*
X143631904Y-58769039D01*
X143509915Y-58547000D01*
X142367000Y-58547000D01*
X142113000Y-58547000D01*
X140970085Y-58547000D01*
X140848096Y-58769039D01*
X129693841Y-58769039D01*
X128995763Y-58070961D01*
X140848096Y-58070961D01*
X140970085Y-58293000D01*
X142113000Y-58293000D01*
X142113000Y-57149376D01*
X142367000Y-57149376D01*
X142367000Y-58293000D01*
X143509915Y-58293000D01*
X143631904Y-58070961D01*
X143591246Y-57936913D01*
X143471037Y-57682580D01*
X143303519Y-57456586D01*
X143095131Y-57267615D01*
X142853881Y-57122930D01*
X142589040Y-57028091D01*
X142367000Y-57149376D01*
X142113000Y-57149376D01*
X141890960Y-57028091D01*
X141626119Y-57122930D01*
X141384869Y-57267615D01*
X141176481Y-57456586D01*
X141008963Y-57682580D01*
X140888754Y-57936913D01*
X140848096Y-58070961D01*
X128995763Y-58070961D01*
X128239801Y-57315000D01*
X128411335Y-57315000D01*
X128688574Y-57259853D01*
X128949727Y-57151680D01*
X129184759Y-56994637D01*
X129384637Y-56794759D01*
X129541680Y-56559727D01*
X129649853Y-56298574D01*
X129705000Y-56021335D01*
X129705000Y-55738665D01*
X129668688Y-55556113D01*
X132446004Y-52778798D01*
X132475002Y-52755000D01*
X132516015Y-52705026D01*
X132569975Y-52639276D01*
X132640547Y-52507246D01*
X132656203Y-52455635D01*
X132684004Y-52363985D01*
X132695001Y-52252332D01*
X132695001Y-52252323D01*
X132698677Y-52215000D01*
X132695001Y-52177677D01*
X132695001Y-50658665D01*
X134455000Y-50658665D01*
X134455000Y-50941335D01*
X134510147Y-51218574D01*
X134618320Y-51479727D01*
X134775363Y-51714759D01*
X134975241Y-51914637D01*
X135207759Y-52070000D01*
X134975241Y-52225363D01*
X134775363Y-52425241D01*
X134618320Y-52660273D01*
X134510147Y-52921426D01*
X134455000Y-53198665D01*
X134455000Y-53481335D01*
X134510147Y-53758574D01*
X134618320Y-54019727D01*
X134775363Y-54254759D01*
X134975241Y-54454637D01*
X135207759Y-54610000D01*
X134975241Y-54765363D01*
X134775363Y-54965241D01*
X134618320Y-55200273D01*
X134510147Y-55461426D01*
X134455000Y-55738665D01*
X134455000Y-56021335D01*
X134510147Y-56298574D01*
X134618320Y-56559727D01*
X134775363Y-56794759D01*
X134975241Y-56994637D01*
X135210273Y-57151680D01*
X135471426Y-57259853D01*
X135748665Y-57315000D01*
X136031335Y-57315000D01*
X136308574Y-57259853D01*
X136569727Y-57151680D01*
X136804759Y-56994637D01*
X137004637Y-56794759D01*
X137161680Y-56559727D01*
X137269853Y-56298574D01*
X137325000Y-56021335D01*
X137325000Y-55738665D01*
X137269853Y-55461426D01*
X137161680Y-55200273D01*
X137004637Y-54965241D01*
X136804759Y-54765363D01*
X136572241Y-54610000D01*
X136804759Y-54454637D01*
X137004637Y-54254759D01*
X137161680Y-54019727D01*
X137269853Y-53758574D01*
X137325000Y-53481335D01*
X137325000Y-53198665D01*
X137269853Y-52921426D01*
X137161680Y-52660273D01*
X137004637Y-52425241D01*
X136804759Y-52225363D01*
X136572241Y-52070000D01*
X136804759Y-51914637D01*
X137004637Y-51714759D01*
X137161680Y-51479727D01*
X137269853Y-51218574D01*
X137325000Y-50941335D01*
X137325000Y-50658665D01*
X137269853Y-50381426D01*
X137161680Y-50120273D01*
X137004637Y-49885241D01*
X136804759Y-49685363D01*
X136569727Y-49528320D01*
X136559135Y-49523933D01*
X136745131Y-49412385D01*
X136953519Y-49223414D01*
X137121037Y-48997420D01*
X137241246Y-48743087D01*
X137281904Y-48609039D01*
X137159915Y-48387000D01*
X136017000Y-48387000D01*
X136017000Y-48407000D01*
X135763000Y-48407000D01*
X135763000Y-48387000D01*
X134620085Y-48387000D01*
X134498096Y-48609039D01*
X134538754Y-48743087D01*
X134658963Y-48997420D01*
X134826481Y-49223414D01*
X135034869Y-49412385D01*
X135220865Y-49523933D01*
X135210273Y-49528320D01*
X134975241Y-49685363D01*
X134775363Y-49885241D01*
X134618320Y-50120273D01*
X134510147Y-50381426D01*
X134455000Y-50658665D01*
X132695001Y-50658665D01*
X132695001Y-40498665D01*
X134455000Y-40498665D01*
X134455000Y-40781335D01*
X134510147Y-41058574D01*
X134618320Y-41319727D01*
X134775363Y-41554759D01*
X134975241Y-41754637D01*
X135207759Y-41910000D01*
X134975241Y-42065363D01*
X134775363Y-42265241D01*
X134618320Y-42500273D01*
X134510147Y-42761426D01*
X134455000Y-43038665D01*
X134455000Y-43321335D01*
X134510147Y-43598574D01*
X134618320Y-43859727D01*
X134775363Y-44094759D01*
X134975241Y-44294637D01*
X135207759Y-44450000D01*
X134975241Y-44605363D01*
X134775363Y-44805241D01*
X134618320Y-45040273D01*
X134510147Y-45301426D01*
X134455000Y-45578665D01*
X134455000Y-45861335D01*
X134510147Y-46138574D01*
X134618320Y-46399727D01*
X134775363Y-46634759D01*
X134975241Y-46834637D01*
X135210273Y-46991680D01*
X135220865Y-46996067D01*
X135034869Y-47107615D01*
X134826481Y-47296586D01*
X134658963Y-47522580D01*
X134538754Y-47776913D01*
X134498096Y-47910961D01*
X134620085Y-48133000D01*
X135763000Y-48133000D01*
X135763000Y-48113000D01*
X136017000Y-48113000D01*
X136017000Y-48133000D01*
X137159915Y-48133000D01*
X137281904Y-47910961D01*
X137241246Y-47776913D01*
X137121037Y-47522580D01*
X136953519Y-47296586D01*
X136745131Y-47107615D01*
X136559135Y-46996067D01*
X136569727Y-46991680D01*
X136804759Y-46834637D01*
X137004637Y-46634759D01*
X137161680Y-46399727D01*
X137269853Y-46138574D01*
X137325000Y-45861335D01*
X137325000Y-45578665D01*
X137269853Y-45301426D01*
X137161680Y-45040273D01*
X137004637Y-44805241D01*
X136804759Y-44605363D01*
X136572241Y-44450000D01*
X136804759Y-44294637D01*
X137004637Y-44094759D01*
X137161680Y-43859727D01*
X137269853Y-43598574D01*
X137325000Y-43321335D01*
X137325000Y-43038665D01*
X137269853Y-42761426D01*
X137161680Y-42500273D01*
X137004637Y-42265241D01*
X136804759Y-42065363D01*
X136572241Y-41910000D01*
X136804759Y-41754637D01*
X137004637Y-41554759D01*
X137161680Y-41319727D01*
X137269853Y-41058574D01*
X137325000Y-40781335D01*
X137325000Y-40498665D01*
X137269853Y-40221426D01*
X137161680Y-39960273D01*
X137004637Y-39725241D01*
X136804759Y-39525363D01*
X136569727Y-39368320D01*
X136308574Y-39260147D01*
X136031335Y-39205000D01*
X135748665Y-39205000D01*
X135471426Y-39260147D01*
X135210273Y-39368320D01*
X134975241Y-39525363D01*
X134775363Y-39725241D01*
X134618320Y-39960273D01*
X134510147Y-40221426D01*
X134455000Y-40498665D01*
X132695001Y-40498665D01*
X132695001Y-29102326D01*
X132698677Y-29065001D01*
X132695001Y-29027676D01*
X132695001Y-29027668D01*
X132684004Y-28916015D01*
X132640547Y-28772754D01*
X132569975Y-28640725D01*
X132475002Y-28525000D01*
X132446005Y-28501203D01*
X132208688Y-28263886D01*
X132245000Y-28081335D01*
X132245000Y-27798665D01*
X132189853Y-27521426D01*
X132081680Y-27260273D01*
X131924637Y-27025241D01*
X131724759Y-26825363D01*
X131489727Y-26668320D01*
X131228574Y-26560147D01*
X130951335Y-26505000D01*
X130668665Y-26505000D01*
X130391426Y-26560147D01*
X130130273Y-26668320D01*
X129895241Y-26825363D01*
X129695363Y-27025241D01*
X129538320Y-27260273D01*
X129430147Y-27521426D01*
X129375000Y-27798665D01*
X129375000Y-28081335D01*
X129430147Y-28358574D01*
X129538320Y-28619727D01*
X129695363Y-28854759D01*
X129895241Y-29054637D01*
X130130273Y-29211680D01*
X130391426Y-29319853D01*
X130668665Y-29375000D01*
X130951335Y-29375000D01*
X131133886Y-29338688D01*
X131175001Y-29379803D01*
X131175001Y-31629491D01*
X130951335Y-31585000D01*
X130668665Y-31585000D01*
X130391426Y-31640147D01*
X130130273Y-31748320D01*
X129895241Y-31905363D01*
X129695363Y-32105241D01*
X129538320Y-32340273D01*
X129430147Y-32601426D01*
X129375000Y-32878665D01*
X129375000Y-33161335D01*
X129430147Y-33438574D01*
X129538320Y-33699727D01*
X129695363Y-33934759D01*
X129895241Y-34134637D01*
X130050000Y-34238044D01*
X130050001Y-40325196D01*
X129708072Y-40667125D01*
X129708072Y-39840000D01*
X129695812Y-39715518D01*
X129659502Y-39595820D01*
X129600537Y-39485506D01*
X129521185Y-39388815D01*
X129424494Y-39309463D01*
X129314180Y-39250498D01*
X129194482Y-39214188D01*
X129070000Y-39201928D01*
X129030000Y-39201928D01*
X129030000Y-25714801D01*
X130486114Y-24258688D01*
X130668665Y-24295000D01*
X130951335Y-24295000D01*
X131228574Y-24239853D01*
X131489727Y-24131680D01*
X131724759Y-23974637D01*
X131924637Y-23774759D01*
X132081680Y-23539727D01*
X132189853Y-23278574D01*
X132245000Y-23001335D01*
X132245000Y-22718665D01*
X142075000Y-22718665D01*
X142075000Y-23001335D01*
X142130147Y-23278574D01*
X142238320Y-23539727D01*
X142395363Y-23774759D01*
X142595241Y-23974637D01*
X142830273Y-24131680D01*
X143091426Y-24239853D01*
X143368665Y-24295000D01*
X143651335Y-24295000D01*
X143928574Y-24239853D01*
X144189727Y-24131680D01*
X144424759Y-23974637D01*
X144624637Y-23774759D01*
X144781680Y-23539727D01*
X144889853Y-23278574D01*
X144945000Y-23001335D01*
X144945000Y-22718665D01*
X144889853Y-22441426D01*
X144781680Y-22180273D01*
X144624637Y-21945241D01*
X144424759Y-21745363D01*
X144189727Y-21588320D01*
X143928574Y-21480147D01*
X143651335Y-21425000D01*
X143368665Y-21425000D01*
X143091426Y-21480147D01*
X142830273Y-21588320D01*
X142595241Y-21745363D01*
X142395363Y-21945241D01*
X142238320Y-22180273D01*
X142130147Y-22441426D01*
X142075000Y-22718665D01*
X132245000Y-22718665D01*
X132189853Y-22441426D01*
X132081680Y-22180273D01*
X131924637Y-21945241D01*
X131724759Y-21745363D01*
X131489727Y-21588320D01*
X131228574Y-21480147D01*
X130951335Y-21425000D01*
X130668665Y-21425000D01*
X130391426Y-21480147D01*
X130130273Y-21588320D01*
X129895241Y-21745363D01*
X129695363Y-21945241D01*
X129538320Y-22180273D01*
X129430147Y-22441426D01*
X129375000Y-22718665D01*
X129375000Y-23001335D01*
X129411312Y-23183886D01*
X127759003Y-24836196D01*
X127729999Y-24859999D01*
X127674871Y-24927174D01*
X127635026Y-24975724D01*
X127575994Y-25086165D01*
X127564454Y-25107754D01*
X127520997Y-25251015D01*
X127510000Y-25362668D01*
X127510000Y-25362678D01*
X127506324Y-25400000D01*
X127510000Y-25437322D01*
X127510001Y-39201928D01*
X127470000Y-39201928D01*
X127345518Y-39214188D01*
X127225820Y-39250498D01*
X127115506Y-39309463D01*
X127018815Y-39388815D01*
X126939463Y-39485506D01*
X126880498Y-39595820D01*
X126844188Y-39715518D01*
X126831928Y-39840000D01*
X126831928Y-41440000D01*
X126844188Y-41564482D01*
X126880498Y-41684180D01*
X126939463Y-41794494D01*
X127018815Y-41891185D01*
X127115506Y-41970537D01*
X127225820Y-42029502D01*
X127345518Y-42065812D01*
X127353961Y-42066643D01*
X127155363Y-42265241D01*
X126998320Y-42500273D01*
X126890147Y-42761426D01*
X126835000Y-43038665D01*
X126835000Y-43321335D01*
X126890147Y-43598574D01*
X126998320Y-43859727D01*
X127155363Y-44094759D01*
X127355241Y-44294637D01*
X127587759Y-44450000D01*
X127355241Y-44605363D01*
X127155363Y-44805241D01*
X126998320Y-45040273D01*
X126890147Y-45301426D01*
X126835000Y-45578665D01*
X126835000Y-45750198D01*
X117455001Y-36370200D01*
X117455001Y-29142326D01*
X117458677Y-29105001D01*
X117455001Y-29067676D01*
X117455001Y-29067668D01*
X117444004Y-28956015D01*
X117400547Y-28812754D01*
X117329975Y-28680725D01*
X117235002Y-28565000D01*
X117206005Y-28541203D01*
X116968688Y-28303886D01*
X117005000Y-28121335D01*
X117005000Y-27838665D01*
X116949853Y-27561426D01*
X116841680Y-27300273D01*
X116684637Y-27065241D01*
X116484759Y-26865363D01*
X116249727Y-26708320D01*
X115988574Y-26600147D01*
X115711335Y-26545000D01*
X115428665Y-26545000D01*
X115151426Y-26600147D01*
X114890273Y-26708320D01*
X114655241Y-26865363D01*
X114455363Y-27065241D01*
X114351957Y-27220000D01*
X112978043Y-27220000D01*
X112874637Y-27065241D01*
X112674759Y-26865363D01*
X112439727Y-26708320D01*
X112178574Y-26600147D01*
X111901335Y-26545000D01*
X111618665Y-26545000D01*
X111341426Y-26600147D01*
X111080273Y-26708320D01*
X110845241Y-26865363D01*
X110645363Y-27065241D01*
X110568684Y-27180000D01*
X105578072Y-27180000D01*
X105578072Y-27140000D01*
X105565812Y-27015518D01*
X105529502Y-26895820D01*
X105470537Y-26785506D01*
X105391185Y-26688815D01*
X105294494Y-26609463D01*
X105184180Y-26550498D01*
X105064482Y-26514188D01*
X104940000Y-26501928D01*
X103340000Y-26501928D01*
X103215518Y-26514188D01*
X103095820Y-26550498D01*
X102985506Y-26609463D01*
X102888815Y-26688815D01*
X102809463Y-26785506D01*
X102750498Y-26895820D01*
X102714188Y-27015518D01*
X102701928Y-27140000D01*
X102701928Y-27180000D01*
X95328072Y-27180000D01*
X95328072Y-26950000D01*
X95315812Y-26825518D01*
X95279502Y-26705820D01*
X95220537Y-26595506D01*
X95141185Y-26498815D01*
X95044494Y-26419463D01*
X94934180Y-26360498D01*
X94845000Y-26333446D01*
X94845000Y-26284345D01*
X99944346Y-21185000D01*
X150245655Y-21185000D01*
X151535000Y-22474346D01*
X151535001Y-25785654D01*
X151015655Y-26305000D01*
X150228072Y-26305000D01*
X150228072Y-24447500D01*
X150215812Y-24323018D01*
X150179502Y-24203320D01*
X150120537Y-24093006D01*
X150041185Y-23996315D01*
X149944494Y-23916963D01*
X149834180Y-23857998D01*
X149714482Y-23821688D01*
X149590000Y-23809428D01*
X147590000Y-23809428D01*
X147465518Y-23821688D01*
X147345820Y-23857998D01*
X147235506Y-23916963D01*
X147138815Y-23996315D01*
X147059463Y-24093006D01*
X147000498Y-24203320D01*
X146964188Y-24323018D01*
X146951928Y-24447500D01*
X146951928Y-26352500D01*
X146964188Y-26476982D01*
X147000498Y-26596680D01*
X147059463Y-26706994D01*
X147138815Y-26803685D01*
X147235506Y-26883037D01*
X147309751Y-26922722D01*
X147223969Y-27027248D01*
X147072148Y-27311285D01*
X146978657Y-27619484D01*
X146947089Y-27940000D01*
X146978657Y-28260516D01*
X147072148Y-28568715D01*
X147223969Y-28852752D01*
X147428286Y-29101714D01*
X147560233Y-29210000D01*
X147428286Y-29318286D01*
X147223969Y-29567249D01*
X147072148Y-29851286D01*
X146978657Y-30159485D01*
X146955000Y-30399679D01*
X146955000Y-30402014D01*
X146947319Y-30480000D01*
X146955000Y-30557986D01*
X146955001Y-36806834D01*
X146806224Y-36988119D01*
X146607975Y-37359018D01*
X146485893Y-37761467D01*
X146444671Y-38180000D01*
X146485893Y-38598533D01*
X146607975Y-39000982D01*
X146806224Y-39371881D01*
X147006165Y-39615510D01*
X160050655Y-52660000D01*
X156564802Y-52660000D01*
X156338688Y-52433886D01*
X156375000Y-52251335D01*
X156375000Y-51968665D01*
X156319853Y-51691426D01*
X156211680Y-51430273D01*
X156054637Y-51195241D01*
X155854759Y-50995363D01*
X155619727Y-50838320D01*
X155358574Y-50730147D01*
X155081335Y-50675000D01*
X154798665Y-50675000D01*
X154521426Y-50730147D01*
X154260273Y-50838320D01*
X154025241Y-50995363D01*
X153825363Y-51195241D01*
X153668320Y-51430273D01*
X153560147Y-51691426D01*
X153505000Y-51968665D01*
X153505000Y-52100198D01*
X141098688Y-39693887D01*
X141135000Y-39511335D01*
X141135000Y-39228665D01*
X141079853Y-38951426D01*
X140971680Y-38690273D01*
X140814637Y-38455241D01*
X140614759Y-38255363D01*
X140412173Y-38120000D01*
X140614759Y-37984637D01*
X140814637Y-37784759D01*
X140971680Y-37549727D01*
X141079853Y-37288574D01*
X141135000Y-37011335D01*
X141135000Y-36728665D01*
X141079853Y-36451426D01*
X140971680Y-36190273D01*
X140814637Y-35955241D01*
X140614759Y-35755363D01*
X140460000Y-35651957D01*
X140460000Y-32878665D01*
X142075000Y-32878665D01*
X142075000Y-33161335D01*
X142130147Y-33438574D01*
X142238320Y-33699727D01*
X142395363Y-33934759D01*
X142595241Y-34134637D01*
X142830273Y-34291680D01*
X143091426Y-34399853D01*
X143368665Y-34455000D01*
X143651335Y-34455000D01*
X143928574Y-34399853D01*
X144189727Y-34291680D01*
X144424759Y-34134637D01*
X144624637Y-33934759D01*
X144781680Y-33699727D01*
X144889853Y-33438574D01*
X144945000Y-33161335D01*
X144945000Y-32878665D01*
X144889853Y-32601426D01*
X144781680Y-32340273D01*
X144624637Y-32105241D01*
X144424759Y-31905363D01*
X144189727Y-31748320D01*
X143928574Y-31640147D01*
X143651335Y-31585000D01*
X143368665Y-31585000D01*
X143091426Y-31640147D01*
X142830273Y-31748320D01*
X142595241Y-31905363D01*
X142395363Y-32105241D01*
X142238320Y-32340273D01*
X142130147Y-32601426D01*
X142075000Y-32878665D01*
X140460000Y-32878665D01*
X140460000Y-32064801D01*
X143186114Y-29338688D01*
X143368665Y-29375000D01*
X143651335Y-29375000D01*
X143928574Y-29319853D01*
X144189727Y-29211680D01*
X144424759Y-29054637D01*
X144624637Y-28854759D01*
X144781680Y-28619727D01*
X144889853Y-28358574D01*
X144945000Y-28081335D01*
X144945000Y-27798665D01*
X144889853Y-27521426D01*
X144781680Y-27260273D01*
X144624637Y-27025241D01*
X144424759Y-26825363D01*
X144189727Y-26668320D01*
X143928574Y-26560147D01*
X143651335Y-26505000D01*
X143368665Y-26505000D01*
X143091426Y-26560147D01*
X142830273Y-26668320D01*
X142595241Y-26825363D01*
X142395363Y-27025241D01*
X142238320Y-27260273D01*
X142130147Y-27521426D01*
X142075000Y-27798665D01*
X142075000Y-28081335D01*
X142111312Y-28263886D01*
X139188998Y-31186201D01*
X139160000Y-31209999D01*
X139136202Y-31238997D01*
X139136201Y-31238998D01*
X139065026Y-31325724D01*
X138994454Y-31457754D01*
X138950998Y-31601015D01*
X138936324Y-31750000D01*
X138940001Y-31787332D01*
X138940000Y-35651956D01*
X138785241Y-35755363D01*
X138585363Y-35955241D01*
X138428320Y-36190273D01*
X138320147Y-36451426D01*
X138265000Y-36728665D01*
X138265000Y-37011335D01*
X138320147Y-37288574D01*
X138428320Y-37549727D01*
X138585363Y-37784759D01*
X138785241Y-37984637D01*
X138987827Y-38120000D01*
X138785241Y-38255363D01*
X138585363Y-38455241D01*
X138428320Y-38690273D01*
X138320147Y-38951426D01*
X138265000Y-39228665D01*
X138265000Y-39511335D01*
X138320147Y-39788574D01*
X138428320Y-40049727D01*
X138585363Y-40284759D01*
X138785241Y-40484637D01*
X139020273Y-40641680D01*
X139281426Y-40749853D01*
X139558665Y-40805000D01*
X139841335Y-40805000D01*
X140023887Y-40768688D01*
X153541312Y-54286114D01*
X153505000Y-54468665D01*
X153505000Y-54751335D01*
X153560147Y-55028574D01*
X153668320Y-55289727D01*
X153825363Y-55524759D01*
X154025241Y-55724637D01*
X154180000Y-55828044D01*
X154180000Y-56419475D01*
X154119018Y-56437974D01*
X153748119Y-56636223D01*
X153423023Y-56903023D01*
X153156223Y-57228119D01*
X152957974Y-57599018D01*
X152835892Y-58001467D01*
X152794670Y-58420000D01*
X152835892Y-58838533D01*
X152957974Y-59240982D01*
X153156223Y-59611881D01*
X153423023Y-59936977D01*
X153530235Y-60024964D01*
X148913887Y-64641312D01*
X148731335Y-64605000D01*
X148448665Y-64605000D01*
X148171426Y-64660147D01*
X147910273Y-64768320D01*
X147675241Y-64925363D01*
X147475363Y-65125241D01*
X147318320Y-65360273D01*
X147210147Y-65621426D01*
X147155000Y-65898665D01*
X147155000Y-66181335D01*
X147210147Y-66458574D01*
X147318320Y-66719727D01*
X147475363Y-66954759D01*
X147675241Y-67154637D01*
X147910273Y-67311680D01*
X148171426Y-67419853D01*
X148448665Y-67475000D01*
X148731335Y-67475000D01*
X149008574Y-67419853D01*
X149269727Y-67311680D01*
X149504759Y-67154637D01*
X149704637Y-66954759D01*
X149861680Y-66719727D01*
X149969853Y-66458574D01*
X150025000Y-66181335D01*
X150025000Y-65898665D01*
X149988688Y-65716113D01*
X155149802Y-60555000D01*
X163934882Y-60555000D01*
X164248533Y-60524108D01*
X164650982Y-60402026D01*
X165021881Y-60203777D01*
X165211608Y-60048072D01*
X165810000Y-60048072D01*
X165934482Y-60035812D01*
X166054180Y-59999502D01*
X166164494Y-59940537D01*
X166261185Y-59861185D01*
X166340537Y-59764494D01*
X166399502Y-59654180D01*
X166435812Y-59534482D01*
X166448072Y-59410000D01*
X166448072Y-57430000D01*
X166435812Y-57305518D01*
X166399502Y-57185820D01*
X166340537Y-57075506D01*
X166261185Y-56978815D01*
X166164494Y-56899463D01*
X166054180Y-56840498D01*
X165934482Y-56804188D01*
X165810000Y-56791928D01*
X165211608Y-56791928D01*
X165021881Y-56636223D01*
X164650982Y-56437974D01*
X164248533Y-56315892D01*
X163934882Y-56285000D01*
X155700000Y-56285000D01*
X155700000Y-55828043D01*
X155854759Y-55724637D01*
X156054637Y-55524759D01*
X156211680Y-55289727D01*
X156319853Y-55028574D01*
X156375000Y-54751335D01*
X156375000Y-54468665D01*
X156319853Y-54191426D01*
X156315120Y-54180000D01*
X161403661Y-54180000D01*
X161482325Y-54327170D01*
X161685392Y-54574608D01*
X161932830Y-54777675D01*
X162215131Y-54928568D01*
X162364548Y-54973893D01*
X162394490Y-55003835D01*
X162638118Y-55203776D01*
X163009018Y-55402026D01*
X163411466Y-55524108D01*
X163830000Y-55565329D01*
X164248533Y-55524108D01*
X164650982Y-55402026D01*
X165021881Y-55203776D01*
X165305831Y-54970745D01*
X165444869Y-54928568D01*
X165727170Y-54777675D01*
X165974608Y-54574608D01*
X166177675Y-54327170D01*
X166328568Y-54044869D01*
X166421487Y-53738556D01*
X166452862Y-53420000D01*
X166421487Y-53101444D01*
X166328568Y-52795131D01*
X166177675Y-52512830D01*
X165974608Y-52265392D01*
X165727170Y-52062325D01*
X165444869Y-51911432D01*
X165295452Y-51866107D01*
X150225000Y-36795655D01*
X150225000Y-30557986D01*
X150232681Y-30480000D01*
X150225000Y-30402014D01*
X150225000Y-30399678D01*
X150201343Y-30159484D01*
X150107852Y-29851285D01*
X149960175Y-29575000D01*
X151026835Y-29575000D01*
X151208119Y-29723776D01*
X151579018Y-29922025D01*
X151981467Y-30044107D01*
X152400000Y-30085329D01*
X152818533Y-30044107D01*
X153220982Y-29922025D01*
X153591881Y-29723776D01*
X153835510Y-29523835D01*
X155105508Y-28253837D01*
X155186977Y-28186977D01*
X155453777Y-27861881D01*
X155537578Y-27705098D01*
X162865000Y-27705098D01*
X162865000Y-28174902D01*
X162956654Y-28635679D01*
X163136440Y-29069721D01*
X163397450Y-29460349D01*
X163729651Y-29792550D01*
X164120279Y-30053560D01*
X164554321Y-30233346D01*
X165015098Y-30325000D01*
X165484902Y-30325000D01*
X165945679Y-30233346D01*
X166379721Y-30053560D01*
X166770349Y-29792550D01*
X167102550Y-29460349D01*
X167363560Y-29069721D01*
X167543346Y-28635679D01*
X167635000Y-28174902D01*
X167635000Y-27705098D01*
X167543346Y-27244321D01*
X167363560Y-26810279D01*
X167102550Y-26419651D01*
X166770349Y-26087450D01*
X166379721Y-25826440D01*
X165945679Y-25646654D01*
X165484902Y-25555000D01*
X165015098Y-25555000D01*
X164554321Y-25646654D01*
X164120279Y-25826440D01*
X163729651Y-26087450D01*
X163397450Y-26419651D01*
X163136440Y-26810279D01*
X162956654Y-27244321D01*
X162865000Y-27705098D01*
X155537578Y-27705098D01*
X155652026Y-27490982D01*
X155774108Y-27088533D01*
X155805000Y-26774882D01*
X155805000Y-26774873D01*
X155815329Y-26670001D01*
X155805000Y-26565129D01*
X155805000Y-21694871D01*
X155815329Y-21589999D01*
X155805000Y-21485127D01*
X155805000Y-21485118D01*
X155774108Y-21171467D01*
X155652026Y-20769018D01*
X155453777Y-20398119D01*
X155394868Y-20326338D01*
X155253835Y-20154489D01*
X155253833Y-20154487D01*
X155186977Y-20073023D01*
X155105513Y-20006167D01*
X152713837Y-17614492D01*
X152646977Y-17533023D01*
X152321881Y-17266223D01*
X151950982Y-17067974D01*
X151548533Y-16945892D01*
X151234882Y-16915000D01*
X151234872Y-16915000D01*
X151130000Y-16904671D01*
X151025128Y-16915000D01*
X99164871Y-16915000D01*
X99059999Y-16904671D01*
X98955127Y-16915000D01*
X98955118Y-16915000D01*
X98641467Y-16945892D01*
X98239018Y-17067974D01*
X97868119Y-17266223D01*
X97868117Y-17266224D01*
X97868118Y-17266224D01*
X97624489Y-17466165D01*
X97624487Y-17466167D01*
X97543023Y-17533023D01*
X97476167Y-17614487D01*
X91274487Y-23816167D01*
X91193024Y-23883023D01*
X91126168Y-23964487D01*
X91126165Y-23964490D01*
X91117838Y-23974637D01*
X90926224Y-24208119D01*
X90727975Y-24579018D01*
X90605892Y-24981467D01*
X90575000Y-25295118D01*
X90575000Y-25295128D01*
X90564671Y-25400000D01*
X90575000Y-25504872D01*
X90575000Y-26333446D01*
X90485820Y-26360498D01*
X90375506Y-26419463D01*
X90278815Y-26498815D01*
X90199463Y-26595506D01*
X90140498Y-26705820D01*
X90104188Y-26825518D01*
X90091928Y-26950000D01*
X90091928Y-28930000D01*
X90104188Y-29054482D01*
X90140498Y-29174180D01*
X90199463Y-29284494D01*
X90240590Y-29334608D01*
X85849003Y-33726196D01*
X85819999Y-33749999D01*
X85764871Y-33817174D01*
X85725026Y-33865724D01*
X85688126Y-33934759D01*
X85654454Y-33997754D01*
X85610997Y-34141015D01*
X85600000Y-34252668D01*
X85600000Y-34252678D01*
X85596324Y-34290000D01*
X85600000Y-34327323D01*
X85600001Y-37915091D01*
X85585537Y-37921082D01*
X85317748Y-38100013D01*
X85090013Y-38327748D01*
X84911082Y-38595537D01*
X84787832Y-38893088D01*
X84725000Y-39208967D01*
X77597000Y-39208967D01*
X77597000Y-15367000D01*
X175133000Y-15367000D01*
X175133000Y-86233000D01*
G37*
%TD.AperFunction*%
%TD*%
M02*
